<svg width="22" height="16" viewBox="0 0 22 16" fill="none" xmlns="http://www.w3.org/2000/svg">
<g id="Vector">
<mask id="path-1-inside-1_1001_1287" fill="white">
<path fill-rule="evenodd" clip-rule="evenodd" d="M1.39961 0.799988C1.18744 0.799988 0.983953 0.884273 0.833924 1.0343C0.683895 1.18433 0.599609 1.38781 0.599609 1.59999C0.599609 1.81216 0.683895 2.01564 0.833924 2.16567C0.983953 2.3157 1.18744 2.39999 1.39961 2.39999H20.5996C20.8118 2.39999 21.0153 2.3157 21.1653 2.16567C21.3153 2.01564 21.3996 1.81216 21.3996 1.59999C21.3996 1.38781 21.3153 1.18433 21.1653 1.0343C21.0153 0.884273 20.8118 0.799988 20.5996 0.799988H1.39961ZM0.599609 7.99999C0.599609 7.78781 0.683895 7.58433 0.833924 7.4343C0.983953 7.28427 1.18744 7.19999 1.39961 7.19999H20.5996C20.8118 7.19999 21.0153 7.28427 21.1653 7.4343C21.3153 7.58433 21.3996 7.78781 21.3996 7.99999C21.3996 8.21216 21.3153 8.41564 21.1653 8.56567C21.0153 8.7157 20.8118 8.79999 20.5996 8.79999H1.39961C1.18744 8.79999 0.983953 8.7157 0.833924 8.56567C0.683895 8.41564 0.599609 8.21216 0.599609 7.99999ZM0.599609 14.4C0.599609 14.1878 0.683895 13.9843 0.833924 13.8343C0.983953 13.6843 1.18744 13.6 1.39961 13.6H20.5996C20.8118 13.6 21.0153 13.6843 21.1653 13.8343C21.3153 13.9843 21.3996 14.1878 21.3996 14.4C21.3996 14.6122 21.3153 14.8156 21.1653 14.9657C21.0153 15.1157 20.8118 15.2 20.5996 15.2H1.39961C1.18744 15.2 0.983953 15.1157 0.833924 14.9657C0.683895 14.8156 0.599609 14.6122 0.599609 14.4Z"/>
</mask>
<path fill-rule="evenodd" clip-rule="evenodd" d="M1.39961 0.799988C1.18744 0.799988 0.983953 0.884273 0.833924 1.0343C0.683895 1.18433 0.599609 1.38781 0.599609 1.59999C0.599609 1.81216 0.683895 2.01564 0.833924 2.16567C0.983953 2.3157 1.18744 2.39999 1.39961 2.39999H20.5996C20.8118 2.39999 21.0153 2.3157 21.1653 2.16567C21.3153 2.01564 21.3996 1.81216 21.3996 1.59999C21.3996 1.38781 21.3153 1.18433 21.1653 1.0343C21.0153 0.884273 20.8118 0.799988 20.5996 0.799988H1.39961ZM0.599609 7.99999C0.599609 7.78781 0.683895 7.58433 0.833924 7.4343C0.983953 7.28427 1.18744 7.19999 1.39961 7.19999H20.5996C20.8118 7.19999 21.0153 7.28427 21.1653 7.4343C21.3153 7.58433 21.3996 7.78781 21.3996 7.99999C21.3996 8.21216 21.3153 8.41564 21.1653 8.56567C21.0153 8.7157 20.8118 8.79999 20.5996 8.79999H1.39961C1.18744 8.79999 0.983953 8.7157 0.833924 8.56567C0.683895 8.41564 0.599609 8.21216 0.599609 7.99999ZM0.599609 14.4C0.599609 14.1878 0.683895 13.9843 0.833924 13.8343C0.983953 13.6843 1.18744 13.6 1.39961 13.6H20.5996C20.8118 13.6 21.0153 13.6843 21.1653 13.8343C21.3153 13.9843 21.3996 14.1878 21.3996 14.4C21.3996 14.6122 21.3153 14.8156 21.1653 14.9657C21.0153 15.1157 20.8118 15.2 20.5996 15.2H1.39961C1.18744 15.2 0.983953 15.1157 0.833924 14.9657C0.683895 14.8156 0.599609 14.6122 0.599609 14.4Z" fill="white"/>
<path d="M0.599609 1.59999H-1.00039H0.599609ZM0.599609 7.99999H-1.00039H0.599609ZM0.599609 14.4H-1.00039H0.599609ZM1.39961 -0.800012C0.763089 -0.800012 0.15264 -0.547155 -0.297447 -0.0970684L1.96529 2.16567C1.81527 2.3157 1.61178 2.39999 1.39961 2.39999V-0.800012ZM-0.297447 -0.0970684C-0.747534 0.353019 -1.00039 0.963468 -1.00039 1.59999H2.19961C2.19961 1.81216 2.11532 2.01564 1.96529 2.16567L-0.297447 -0.0970684ZM-1.00039 1.59999C-1.00039 2.23651 -0.747534 2.84696 -0.297447 3.29704L1.96529 1.0343C2.11532 1.18433 2.19961 1.38781 2.19961 1.59999H-1.00039ZM-0.297447 3.29704C0.15264 3.74713 0.763089 3.99999 1.39961 3.99999V0.799988C1.61178 0.799988 1.81527 0.884274 1.96529 1.0343L-0.297447 3.29704ZM1.39961 3.99999H20.5996V0.799988H1.39961V3.99999ZM20.5996 3.99999C21.2361 3.99999 21.8466 3.74713 22.2967 3.29704L20.0339 1.0343C20.184 0.884273 20.3874 0.799988 20.5996 0.799988V3.99999ZM22.2967 3.29704C22.7468 2.84695 22.9996 2.2365 22.9996 1.59999H19.7996C19.7996 1.38782 19.8839 1.18433 20.0339 1.0343L22.2967 3.29704ZM22.9996 1.59999C22.9996 0.963471 22.7468 0.353021 22.2967 -0.0970684L20.0339 2.16567C19.8839 2.01564 19.7996 1.81216 19.7996 1.59999H22.9996ZM22.2967 -0.0970684C21.8466 -0.547156 21.2361 -0.800012 20.5996 -0.800012V2.39999C20.3874 2.39999 20.184 2.3157 20.0339 2.16567L22.2967 -0.0970684ZM20.5996 -0.800012H1.39961V2.39999H20.5996V-0.800012ZM2.19961 7.99999C2.19961 8.21216 2.11532 8.41564 1.96529 8.56567L-0.297447 6.30293C-0.747534 6.75302 -1.00039 7.36347 -1.00039 7.99999H2.19961ZM1.96529 8.56567C1.81527 8.7157 1.61178 8.79999 1.39961 8.79999V5.59999C0.763089 5.59999 0.15264 5.85284 -0.297447 6.30293L1.96529 8.56567ZM1.39961 8.79999H20.5996V5.59999H1.39961V8.79999ZM20.5996 8.79999C20.3874 8.79999 20.184 8.7157 20.0339 8.56567L22.2967 6.30293C21.8466 5.85284 21.2361 5.59999 20.5996 5.59999V8.79999ZM20.0339 8.56567C19.8839 8.41564 19.7996 8.21216 19.7996 7.99999H22.9996C22.9996 7.36347 22.7468 6.75302 22.2967 6.30293L20.0339 8.56567ZM19.7996 7.99999C19.7996 7.78782 19.8839 7.58433 20.0339 7.4343L22.2967 9.69704C22.7468 9.24695 22.9996 8.6365 22.9996 7.99999H19.7996ZM20.0339 7.4343C20.184 7.28427 20.3874 7.19999 20.5996 7.19999V10.4C21.2361 10.4 21.8466 10.1471 22.2967 9.69704L20.0339 7.4343ZM20.5996 7.19999H1.39961V10.4H20.5996V7.19999ZM1.39961 7.19999C1.61178 7.19999 1.81527 7.28427 1.96529 7.4343L-0.297447 9.69704C0.15264 10.1471 0.763089 10.4 1.39961 10.4V7.19999ZM1.96529 7.4343C2.11532 7.58433 2.19961 7.78781 2.19961 7.99999H-1.00039C-1.00039 8.63651 -0.747534 9.24696 -0.297447 9.69704L1.96529 7.4343ZM2.19961 14.4C2.19961 14.6122 2.11532 14.8156 1.96529 14.9657L-0.297447 12.7029C-0.747535 13.153 -1.00039 13.7635 -1.00039 14.4H2.19961ZM1.96529 14.9657C1.81526 15.1157 1.61178 15.2 1.39961 15.2V12C0.763093 12 0.152643 12.2528 -0.297447 12.7029L1.96529 14.9657ZM1.39961 15.2H20.5996V12H1.39961V15.2ZM20.5996 15.2C20.3874 15.2 20.184 15.1157 20.0339 14.9657L22.2967 12.7029C21.8466 12.2528 21.2361 12 20.5996 12V15.2ZM20.0339 14.9657C19.8839 14.8156 19.7996 14.6122 19.7996 14.4H22.9996C22.9996 13.7635 22.7468 13.153 22.2967 12.7029L20.0339 14.9657ZM19.7996 14.4C19.7996 14.1878 19.8839 13.9843 20.0339 13.8343L22.2967 16.097C22.7468 15.647 22.9996 15.0365 22.9996 14.4H19.7996ZM20.0339 13.8343C20.184 13.6843 20.3874 13.6 20.5996 13.6V16.8C21.2361 16.8 21.8466 16.5471 22.2967 16.097L20.0339 13.8343ZM20.5996 13.6H1.39961V16.8H20.5996V13.6ZM1.39961 13.6C1.61178 13.6 1.81526 13.6843 1.96529 13.8343L-0.297447 16.097C0.152643 16.5471 0.763093 16.8 1.39961 16.8V13.6ZM1.96529 13.8343C2.11532 13.9843 2.19961 14.1878 2.19961 14.4H-1.00039C-1.00039 15.0365 -0.747535 15.647 -0.297447 16.097L1.96529 13.8343Z" fill="white" mask="url(#path-1-inside-1_1001_1287)"/>
</g>
</svg>
