<svg width="164" height="184" viewBox="0 0 164 184" fill="none" xmlns="http://www.w3.org/2000/svg">
<path d="M38.4414 161.26C38.4414 161.26 17.1595 169.779 22.8982 179.137C28.637 188.495 55.6585 176.258 64.8648 165.939C74.0711 155.62 38.4414 161.26 38.4414 161.26V161.26Z" fill="#FEA726"/>
<g opacity="0.3">
<path d="M63.941 160.595C63.7044 160.98 63.3979 161.392 63.0036 161.834C54.205 171.695 29.1378 183.307 21.9238 176.148C21.9744 177.128 22.2779 178.128 22.8969 179.137C28.6357 188.496 55.6572 176.258 64.8635 165.939C67.4003 163.096 66.5292 161.466 63.941 160.594V160.595Z" fill="#650000"/>
</g>
<path d="M30.6285 183.968C30.0728 183.968 29.5341 183.945 29.0111 183.898C25.5414 183.586 23.0581 182.249 21.6305 179.92C20.3591 177.846 20.0905 175.654 20.8337 173.402C23.3527 165.769 37.2972 160.111 37.8901 159.873C37.9928 159.832 38.0999 159.802 38.2093 159.785C38.2725 159.775 44.634 158.776 51.2335 158.386C63.9147 157.64 66.5751 159.747 67.4708 161.4C68.3338 162.992 67.8301 164.854 65.9725 166.936C58.7927 174.983 41.647 183.968 30.6285 183.968ZM38.8379 162.709C35.0423 164.259 25.3628 169.171 23.6585 174.343C23.1987 175.737 23.3646 177.049 24.1658 178.355C25.0742 179.837 26.7942 180.701 29.2775 180.924C29.7305 180.965 30.2014 180.985 30.6858 180.985C40.7759 180.985 57.1285 172.373 63.757 164.945C64.7234 163.861 65.0061 163.101 64.8581 162.829C64.7368 162.605 63.3292 160.665 51.409 161.369C45.5393 161.715 39.8668 162.554 38.8386 162.711L38.8379 162.709Z" fill="#650000"/>
<path d="M125.51 161.261C125.51 161.261 146.792 169.78 141.053 179.137C135.314 188.496 108.292 176.258 99.0861 165.939C89.8798 155.621 125.51 161.26 125.51 161.26V161.261Z" fill="#FEA726"/>
<g opacity="0.3">
<path d="M100.007 160.596C100.244 160.981 100.55 161.392 100.945 161.834C109.743 171.695 134.81 183.308 142.024 176.148C141.974 177.128 141.67 178.128 141.051 179.137C135.313 188.496 108.291 176.258 99.0848 165.939C96.548 163.097 97.4191 161.467 100.007 160.595V160.596Z" fill="#650000"/>
</g>
<path d="M133.322 183.968C122.302 183.968 105.158 174.983 97.9777 166.936C96.1201 164.855 95.6164 162.992 96.4794 161.4C97.3759 159.748 100.033 157.639 112.717 158.387C119.316 158.776 125.678 159.775 125.741 159.786C125.85 159.803 125.957 159.833 126.06 159.874C126.652 160.11 140.597 165.768 143.116 173.403C143.86 175.654 143.591 177.847 142.32 179.921C140.892 182.248 138.409 183.587 134.939 183.899C134.417 183.945 133.877 183.968 133.322 183.968ZM107.798 161.215C100.222 161.215 99.1963 162.639 99.0936 162.829C98.9456 163.101 99.229 163.862 100.195 164.944C107.141 172.729 124.768 181.817 134.673 180.924C137.157 180.701 138.877 179.836 139.785 178.355C140.586 177.049 140.751 175.737 140.292 174.342C138.587 169.171 128.908 164.259 125.113 162.709C124.083 162.552 118.395 161.712 112.523 161.366C110.717 161.26 109.152 161.215 107.798 161.215V161.215Z" fill="#650000"/>
<path d="M146.437 102.951C146.437 102.951 146.043 110.047 148.103 115.84C148.792 117.77 149.364 119.737 149.718 121.756C151.894 134.141 154.568 169.994 113.157 171.763C108.306 171.972 103.448 171.617 98.6572 170.841C94.8892 170.233 88.6214 169.419 81.978 169.419C75.3346 169.419 69.0669 170.233 65.2988 170.841C60.5078 171.617 55.6499 171.972 50.7994 171.763C9.38774 169.994 12.0622 134.141 14.2382 121.756C14.5916 119.737 15.1645 117.77 15.8526 115.84C16.4924 114.045 16.8941 112.126 17.1471 110.334C17.7088 106.333 17.519 102.951 17.519 102.951C17.519 102.951 3.25392 97.7627 1.63957 76.7813C1.51682 75.1986 1.46474 73.5264 1.49822 71.7571C1.97434 46.7631 22.2133 39.3612 22.5369 39.2418H22.5407C22.5407 39.2418 22.5407 39.238 22.5369 39.2343C20.3795 33.2956 19.4273 27.5958 19.1148 22.6649C19.0106 21.0188 18.9772 19.4586 18.992 18.0028C19.0702 10.4143 25.0106 4.24044 32.5616 3.86718C44.8143 3.26248 53.3883 8.64874 53.3883 8.64874C66.1432 1.92992 81.978 2.09042 81.978 2.09042C81.978 2.09042 97.8129 1.92992 110.568 8.64874C110.568 8.64874 119.142 3.26248 131.394 3.86718C138.945 4.24044 144.886 10.4143 144.964 18.0028C145.027 23.8221 144.298 31.321 141.415 39.2418C141.415 39.2418 161.978 46.5615 162.458 71.7571C162.934 96.9527 146.437 102.951 146.437 102.951Z" fill="white"/>
<path d="M144.964 18.0028C144.886 10.4143 138.945 4.24044 131.394 3.86718C119.142 3.26248 110.568 8.64874 110.568 8.64874C97.8128 1.92992 81.978 2.09042 81.978 2.09042C81.978 2.09042 66.1431 1.92992 53.3882 8.64874C53.3882 8.64874 44.8143 3.26248 32.5615 3.86718C25.0105 4.24044 19.0701 10.4143 18.992 18.0028C18.9287 23.8221 19.6578 31.3173 22.5369 39.2343C22.5406 39.238 22.5406 39.2418 22.5406 39.2418C22.5406 39.2418 31.1629 33.8018 41.8496 41.403C59.4469 53.9194 71.3507 44.1271 81.978 44.1271C92.6052 44.1271 104.562 52.7862 122.106 41.403C133.106 34.2661 141.415 39.2418 141.415 39.2418C141.415 39.2418 141.415 39.238 141.419 39.2343C144.298 31.3173 145.027 23.8221 144.964 18.0028Z" fill="#FEA726"/>
<path d="M65.7336 32.9641C66.6141 31.4337 65.5377 29.156 63.3295 27.8766C61.1212 26.5972 58.6173 26.8007 57.7368 28.3311C56.8564 29.8614 57.9327 32.1392 60.1409 33.4185C62.3492 34.6979 64.8531 34.4944 65.7336 32.9641Z" fill="white"/>
<path d="M103.812 33.4188C106.02 32.1394 107.096 29.8617 106.216 28.3313C105.335 26.801 102.832 26.5975 100.623 27.8769C98.4151 29.1562 97.3388 31.434 98.2193 32.9643C99.0998 34.4947 101.604 34.6982 103.812 33.4188Z" fill="white"/>
<g opacity="0.3">
<path d="M113.157 162.805C108.306 163.014 103.449 162.659 98.6575 161.883C94.8895 161.274 88.6217 160.46 81.9783 160.46C75.3349 160.46 69.0672 161.274 65.2991 161.883C60.5081 162.659 55.6502 163.014 50.7996 162.805C21.922 161.571 14.4848 143.765 13.3644 128.898C12.279 144.332 15.7346 170.265 50.7996 171.763C55.6502 171.972 60.5081 171.617 65.2991 170.841C69.0672 170.233 75.3349 169.419 81.9783 169.419C88.6217 169.419 94.8895 170.233 98.6575 170.841C103.449 171.617 108.306 171.972 113.157 171.763C148.222 170.265 151.678 144.332 150.592 128.898C149.472 143.764 142.034 161.571 113.157 162.805Z" fill="#650000"/>
</g>
<g opacity="0.3">
<path d="M31.1881 109.677C31.1881 109.677 24.9576 111.361 17.1462 110.334C17.7079 106.333 17.5182 102.951 17.5182 102.951C17.5182 102.951 3.25303 97.7626 1.63867 76.7812C1.63867 76.7812 6.28088 87.5948 24.3364 98.5129C24.3364 98.5129 26.4455 105.004 31.1881 109.677Z" fill="#650000"/>
</g>
<g opacity="0.3">
<path d="M132.766 109.677C132.766 109.677 138.996 111.361 146.808 110.334C146.246 106.333 146.436 102.951 146.436 102.951C146.436 102.951 160.701 97.7626 162.315 76.7812C162.315 76.7812 157.673 87.5948 139.617 98.5129C139.617 98.5129 137.508 105.004 132.766 109.677Z" fill="#650000"/>
</g>
<g opacity="0.3">
<path d="M17.1067 90.9677C17.0457 90.219 17.0702 89.4911 17.1454 88.7595C17.2146 88.0279 17.3447 87.3045 17.5099 86.5856C17.8462 85.1493 18.3587 83.7413 19.0424 82.3998C20.3934 79.713 22.5122 77.2964 25.1658 75.6369C26.4804 74.7948 27.9266 74.155 29.4145 73.7407C30.151 73.4966 30.9135 73.3861 31.6634 73.2398C32.0421 73.1942 32.4207 73.1547 32.7987 73.1218C32.9876 73.1061 33.1759 73.0822 33.3648 73.074L33.9302 73.0628C36.9439 73.0263 39.8669 73.6339 42.4811 74.8732C42.7474 74.9994 42.8613 75.3181 42.7355 75.5854C42.647 75.7728 42.464 75.8855 42.2706 75.8915H42.2668C39.4585 75.9773 36.7914 76.09 34.2791 76.588C33.6438 76.6679 33.0442 76.8829 32.4297 77.0023C31.8375 77.2031 31.2327 77.3517 30.6643 77.5883C30.0818 77.7906 29.5335 78.0601 28.9763 78.3058C28.7085 78.4506 28.4436 78.5999 28.1713 78.735C27.8998 78.8709 27.6506 79.0478 27.388 79.2001C25.331 80.4916 23.5254 82.2049 21.9311 84.2295C20.3436 86.2586 18.9524 88.5654 17.6631 91.0626L17.6542 91.079C17.5806 91.2216 17.405 91.2775 17.2629 91.2036C17.1707 91.1559 17.1149 91.0648 17.1067 90.9685V90.9677Z" fill="#650000"/>
</g>
<g opacity="0.3">
<path d="M146.29 91.0621C145.001 88.5649 143.61 86.2581 142.022 84.229C140.428 82.2052 138.622 80.4911 136.565 79.1996C136.303 79.0473 136.054 78.8704 135.782 78.7345C135.509 78.5994 135.245 78.4501 134.977 78.3053C134.42 78.0596 133.871 77.7901 133.289 77.5878C132.72 77.3512 132.116 77.2026 131.523 77.0018C130.909 76.8824 130.309 76.6674 129.674 76.5875C127.162 76.0895 124.495 75.9768 121.686 75.8917H121.683C121.388 75.8827 121.157 75.6356 121.166 75.3408C121.172 75.1332 121.296 74.957 121.471 74.8734C124.085 73.6342 127.008 73.0265 130.022 73.0631L130.588 73.0743C130.777 73.0825 130.965 73.1064 131.154 73.1221C131.532 73.1549 131.91 73.1945 132.289 73.24C133.039 73.3863 133.802 73.4968 134.538 73.7409C136.026 74.1553 137.471 74.795 138.786 75.6371C141.439 77.2967 143.558 79.7132 144.909 82.4C145.593 83.7423 146.105 85.1502 146.442 86.5858C146.606 87.3055 146.736 88.0281 146.806 88.7597C146.882 89.4913 146.906 90.2185 146.845 90.968C146.832 91.1285 146.692 91.2479 146.532 91.2345C146.428 91.2263 146.342 91.1643 146.297 91.0785L146.288 91.0613L146.29 91.0621Z" fill="#650000"/>
</g>
<g opacity="0.3">
<path d="M41.8464 41.3993C32.0599 34.7253 22.5411 39.2419 22.5411 39.2419C22.5411 39.2419 22.5411 39.2381 22.5374 39.2344C20.3799 33.2957 19.4277 27.5959 19.1152 22.665C24.029 30.7911 29.4784 33.725 29.4784 33.725C39.7559 33.7623 41.7869 41.1679 41.8464 41.3993Z" fill="#650000"/>
</g>
<g opacity="0.3">
<path d="M122.107 41.3991C131.894 34.7251 141.413 39.2416 141.413 39.2416C141.413 39.2416 141.413 39.2379 141.416 39.2341C143.574 33.2955 144.526 27.5957 144.839 22.6648C139.925 30.7908 134.475 33.7247 134.475 33.7247C124.198 33.762 122.167 41.1677 122.107 41.3991Z" fill="#650000"/>
</g>
<g opacity="0.3">
<path d="M98.0461 47.5806C98.0461 47.5806 99.2081 51.9 93.1703 53.2796C87.1324 54.6592 85.399 47.7717 85.399 47.7717L81.9784 47.5806L78.5577 47.7717C78.5577 47.7717 76.8243 54.6592 70.7865 53.2796C64.7487 51.9 65.9107 47.5806 65.9107 47.5806C65.9107 47.5806 59.3677 51.0602 63.9712 58.7084C63.9712 58.7084 65.0529 75.9153 81.9784 75.9153C98.9038 75.9153 99.9855 58.7084 99.9855 58.7084C104.589 51.0594 98.0461 47.5806 98.0461 47.5806Z" fill="#650000"/>
</g>
<g opacity="0.7">
<path d="M32.5592 7.22659C44.8119 6.62189 50.5574 10.6076 50.5574 10.6076C58.0415 8.3128 66.2323 7.01009 72.3736 6.28819C78.8183 5.53046 85.3241 5.50881 91.7696 6.25684C97.8372 6.96082 105.882 8.25606 113.394 10.6076C113.394 10.6076 119.139 6.62189 131.392 7.22659C138.692 7.58716 144.485 13.3698 144.933 20.6097C144.961 19.7102 144.971 18.8375 144.962 18.0028C144.883 10.4143 138.943 4.24044 131.392 3.86718C119.139 3.26248 110.565 8.64874 110.565 8.64874C97.8105 1.92992 81.9756 2.09042 81.9756 2.09042C81.9756 2.09042 66.1408 1.92992 53.3859 8.64874C53.3859 8.64874 44.8119 3.26248 32.5592 3.86718C25.0082 4.24044 19.0678 10.4143 18.9897 18.0028C18.9807 18.8375 18.9897 19.7102 19.0179 20.6097C19.4658 13.3691 25.2596 7.58716 32.5592 7.22659Z" fill="white"/>
</g>
<path d="M21.836 37.9289C21.9818 37.8467 22.0837 37.7967 22.1953 37.7392C22.3076 37.6803 22.4155 37.6302 22.5226 37.581C22.7376 37.4772 22.9556 37.3831 23.1721 37.3018C23.6051 37.1211 24.044 36.9837 24.4844 36.8419C25.369 36.5881 26.2677 36.3895 27.1768 36.2723C28.992 36.0401 30.8407 36.0371 32.6351 36.3492C33.0881 36.3895 33.5263 36.5276 33.969 36.6217L34.6296 36.7777C34.8498 36.8277 35.0611 36.9128 35.2768 36.9793L36.5594 37.4048C36.973 37.581 37.3807 37.7706 37.7846 37.9639C38.6104 38.3126 39.3321 38.8635 40.0708 39.345C40.2553 39.4667 40.4256 39.6108 40.5923 39.7594C40.7619 39.9027 40.9271 40.052 41.0892 40.2036C41.4173 40.5014 41.7335 40.8105 42.0326 41.1345C42.1568 41.2689 42.1486 41.4786 42.0154 41.6033C41.9284 41.6847 41.8094 41.7093 41.703 41.6802L41.6732 41.672C41.2492 41.554 40.8423 41.4219 40.4472 41.2778C40.0425 41.1524 39.6787 40.9583 39.271 40.8568C38.8782 40.7276 38.4839 40.6089 38.1008 40.4753C37.9074 40.4118 37.7207 40.3342 37.5265 40.279L36.9418 40.1207C35.4159 39.6138 33.8455 39.3428 32.2862 39.1905L31.113 39.1188C30.7216 39.1241 30.3311 39.1397 29.9412 39.1368C29.1623 39.1651 28.3864 39.2405 27.6179 39.3585C26.8479 39.4675 26.0928 39.6474 25.3437 39.837C24.9784 39.955 24.602 40.0498 24.2464 40.1804C24.0633 40.2401 23.8893 40.3066 23.7159 40.3715C23.6281 40.4036 23.5404 40.4357 23.4622 40.4701L23.2502 40.5582L23.1282 40.6089C22.3701 40.9225 21.502 40.5604 21.1888 39.7997C20.8986 39.0949 21.1888 38.2947 21.8352 37.9319L21.836 37.9289Z" fill="#650000"/>
<path d="M18.2644 101.657C18.2748 101.665 18.3499 101.708 18.4035 101.736L18.5843 101.835L18.9689 102.037C19.2315 102.17 19.5023 102.302 19.7798 102.428C20.3333 102.683 20.9069 102.918 21.4946 103.143C22.0867 103.348 22.6879 103.574 23.3083 103.758L25.2135 104.361L25.2188 104.362C25.3661 104.409 25.4486 104.567 25.4018 104.715C25.3727 104.808 25.2991 104.875 25.2135 104.901C24.878 105 24.538 105.083 24.1943 105.153C23.8514 105.211 23.5032 105.272 23.1551 105.299C22.4572 105.369 21.7512 105.366 21.0445 105.319C20.337 105.272 19.6295 105.167 18.9257 105.004C18.5731 104.927 18.2235 104.824 17.8738 104.707C17.699 104.647 17.5241 104.585 17.3478 104.511C17.26 104.473 17.1723 104.439 17.0808 104.395C16.9855 104.35 16.9134 104.317 16.7795 104.244L16.6537 104.176C15.9262 103.783 15.6546 102.873 16.0467 102.143C16.4387 101.413 17.3456 101.14 18.0732 101.534C18.1379 101.569 18.2056 101.613 18.2636 101.656L18.2644 101.657Z" fill="#650000"/>
<path d="M140.709 40.556L140.497 40.4679C140.419 40.4335 140.331 40.4014 140.243 40.3693C140.07 40.3044 139.895 40.2379 139.713 40.1782C139.357 40.0476 138.981 39.952 138.616 39.8348C137.866 39.6444 137.111 39.4653 136.341 39.3563C135.574 39.2383 134.798 39.1629 134.018 39.1346C133.628 39.1375 133.238 39.1219 132.846 39.1166L131.673 39.1883C130.114 39.3406 128.543 39.6116 127.017 40.1185L126.433 40.2768C126.239 40.332 126.051 40.4096 125.858 40.4731C125.475 40.6075 125.081 40.7262 124.688 40.8546C124.281 40.9561 123.917 41.1502 123.512 41.2756C123.117 41.4197 122.71 41.5518 122.286 41.6698L122.257 41.678C122.081 41.7273 121.899 41.6235 121.85 41.4473C121.818 41.3324 121.851 41.2144 121.926 41.133C122.225 40.8098 122.541 40.5 122.869 40.2021C123.031 40.0506 123.197 39.9012 123.366 39.7579C123.533 39.6101 123.703 39.4653 123.888 39.3436C124.626 38.8621 125.348 38.3119 126.174 37.9625C126.578 37.7699 126.985 37.5803 127.399 37.4033L128.682 36.9778C128.897 36.9114 129.109 36.8263 129.329 36.7762L129.989 36.6202C130.432 36.5262 130.87 36.388 131.323 36.3477C133.118 36.0349 134.967 36.0387 136.782 36.2708C137.69 36.3873 138.589 36.5866 139.474 36.8405C139.914 36.9823 140.353 37.1197 140.786 37.3003C141.003 37.3817 141.221 37.4758 141.436 37.5795C141.543 37.6288 141.651 37.6788 141.763 37.7378C141.875 37.7953 141.977 37.8453 142.122 37.9274C142.838 38.3298 143.093 39.2383 142.692 39.9565C142.32 40.6217 141.515 40.8904 140.83 40.606L140.708 40.5552L140.709 40.556Z" fill="#650000"/>
<path d="M147.176 104.246C147.042 104.318 146.97 104.352 146.875 104.396C146.784 104.441 146.697 104.475 146.608 104.512C146.432 104.587 146.257 104.648 146.082 104.709C145.732 104.825 145.383 104.928 145.03 105.006C144.326 105.168 143.619 105.272 142.911 105.321C142.205 105.368 141.499 105.369 140.801 105.301C140.452 105.273 140.104 105.212 139.761 105.154C139.418 105.084 139.078 105 138.742 104.902C138.594 104.858 138.509 104.702 138.553 104.553C138.58 104.46 138.65 104.392 138.736 104.364L138.742 104.362L140.648 103.76C141.269 103.575 141.869 103.351 142.461 103.145C143.05 102.92 143.623 102.683 144.176 102.429C144.453 102.303 144.724 102.171 144.987 102.038L145.372 101.837L145.552 101.737C145.606 101.709 145.681 101.666 145.691 101.658C146.351 101.16 147.289 101.292 147.786 101.954C148.283 102.616 148.152 103.557 147.492 104.056C147.433 104.101 147.372 104.14 147.31 104.175L147.176 104.246V104.246Z" fill="#650000"/>
<path d="M135.859 39.2129C135.202 39.2129 134.601 38.7724 134.423 38.1043C133.947 36.3163 133.117 34.3224 133.108 34.3022C132.791 33.5415 133.147 32.6673 133.904 32.3478C134.662 32.0275 135.534 32.3858 135.852 33.1458C135.889 33.2346 136.769 35.3451 137.298 37.3346C137.51 38.1312 137.038 38.9494 136.244 39.1621C136.115 39.1965 135.987 39.2129 135.859 39.2129Z" fill="#650000"/>
<path d="M28.0986 39.2131C27.9714 39.2131 27.8427 39.1967 27.714 39.1623C26.9202 38.9496 26.4485 38.1313 26.6598 37.3348C27.1888 35.3453 28.0688 33.2348 28.106 33.146C28.4237 32.386 29.2964 32.0284 30.0537 32.3479C30.811 32.6675 31.1674 33.5424 30.8497 34.3024C30.8415 34.3225 30.0105 36.3173 29.5352 38.1045C29.3574 38.7726 28.7563 39.2131 28.0986 39.2131Z" fill="#650000"/>
<path d="M54.1751 9.91656C53.9422 10.0472 53.6774 10.1637 53.4163 10.2704C53.1529 10.3772 52.8843 10.4765 52.6098 10.5668C52.3398 10.6631 52.0571 10.743 51.7744 10.8191C51.488 10.8923 51.1919 10.9498 50.8802 10.9931L50.8437 10.9983C50.5335 11.0408 50.2478 10.8229 50.2061 10.5116C50.1928 10.4108 50.2069 10.31 50.2426 10.2219C50.3728 9.89864 50.5365 9.61272 50.7143 9.3477C50.895 9.08642 51.0847 8.83931 51.2886 8.61236C51.4887 8.37945 51.6985 8.16146 51.915 7.95467C52.1344 7.74788 52.3524 7.55378 52.6054 7.37983L52.6076 7.37834C53.2868 6.91251 54.2138 7.08645 54.678 7.76803C55.1422 8.44962 54.9689 9.3798 54.2897 9.84564C54.2532 9.87102 54.2138 9.89491 54.1758 9.91656H54.1751Z" fill="#650000"/>
<path d="M111.353 7.37988C111.606 7.55382 111.824 7.74792 112.043 7.95471C112.26 8.16225 112.469 8.37949 112.669 8.61241C112.873 8.83936 113.063 9.08646 113.244 9.34775C113.422 9.61277 113.585 9.89869 113.715 10.2219C113.833 10.5131 113.692 10.8446 113.402 10.9618C113.308 10.9998 113.21 11.011 113.116 10.9983L113.077 10.9931C112.765 10.9506 112.469 10.8923 112.183 10.8192C111.899 10.743 111.618 10.6631 111.347 10.5668C111.073 10.4765 110.804 10.3765 110.541 10.2705C110.28 10.1637 110.015 10.0473 109.782 9.91661C109.064 9.51348 108.808 8.60271 109.209 7.8823C109.611 7.16189 110.519 6.90434 111.237 7.30747C111.275 7.32912 111.313 7.35226 111.348 7.3769L111.352 7.37988H111.353Z" fill="#650000"/>
<path d="M81.9795 52.8601C88.6222 60.9988 96.5668 56.7496 96.5668 56.7496C96.5668 56.7496 98.5055 74.3163 81.9795 74.6365C65.4536 74.3163 67.3923 56.7496 67.3923 56.7496C67.3923 56.7496 75.3376 60.9988 81.9795 52.8601Z" fill="#650000"/>
<path d="M87.5329 45.4411C86.7756 42.8813 81.9801 42.782 81.9801 42.782C81.9801 42.782 77.1847 42.882 76.4273 45.4411C75.67 48.001 79.6025 50.1204 81.9801 50.1204C84.3578 50.1204 88.2903 48.001 87.5329 45.4411Z" fill="#650000"/>
<path d="M71.3281 70.4052C71.3281 70.4052 80.8558 57.8552 92.6302 70.4052C92.6302 70.4052 81.8527 79.8518 71.3281 70.4052Z" fill="#F76D9B"/>
<path d="M81.9793 52.8604C84.0541 56.007 88.6777 57.6367 88.6777 57.6367V57.9017C88.6777 61.5366 85.7749 64.516 82.1526 64.5571C82.0953 64.5571 82.0373 64.5578 81.9785 64.5578C81.9197 64.5578 81.8625 64.5578 81.8044 64.5571C78.1829 64.516 75.2793 61.5358 75.2793 57.9017V57.6367C75.2793 57.6367 79.9029 56.007 81.9778 52.8604H81.9793Z" fill="white"/>
<path d="M81.9784 65.6776H81.7977C77.5862 65.629 74.1641 62.1412 74.1641 57.9009V57.6359C74.1641 57.1603 74.4631 56.7371 74.9102 56.5795C74.9519 56.5646 79.2102 55.029 81.0478 52.2414C81.2546 51.9279 81.6042 51.7397 81.9784 51.7397C82.3527 51.7397 82.7023 51.9279 82.9091 52.2414C84.7474 55.0282 89.005 56.5646 89.0481 56.5795C89.4938 56.7378 89.7928 57.1611 89.7928 57.6359V57.9009C89.7928 62.1405 86.3707 65.629 82.1644 65.6768H81.9777L81.9784 65.6776ZM76.4167 58.3877C76.6607 61.1819 78.99 63.4051 81.817 63.4372H81.9784H82.1451C84.9669 63.4051 87.2954 61.1819 87.5402 58.3877C86.2889 57.8516 83.781 56.6131 81.9784 54.6587C80.1759 56.6131 77.668 57.8509 76.4167 58.3877Z" fill="#650000"/>
<path d="M83.0935 52.8604C83.1858 53.5084 83.2044 54.1571 83.2059 54.8051C83.2081 55.4531 83.1754 56.1019 83.1225 56.7499C83.072 57.3978 82.9909 58.0466 82.8689 58.6946C82.7357 59.3426 82.5869 59.9913 82.3235 60.6393C82.2454 60.8304 82.0282 60.923 81.837 60.8446C81.7403 60.805 81.6689 60.7289 81.6324 60.6393C81.3691 59.9913 81.2203 59.3426 81.0871 58.6946C80.9651 58.0466 80.884 57.3978 80.8334 56.7499C80.7806 56.1019 80.7479 55.4531 80.7501 54.8051C80.7516 54.1571 80.7702 53.5084 80.8624 52.8604C80.9502 52.2423 81.5208 51.8123 82.1368 51.9004C82.6449 51.9728 83.0251 52.3759 83.0943 52.8604H83.0935Z" fill="#650000"/>
<path d="M81.9809 75.9423C81.9727 75.9423 81.9646 75.9423 81.9556 75.9423C76.8804 75.8445 72.91 74.1976 70.1537 71.048C65.1946 65.3818 66.0598 56.9609 66.0992 56.6055C66.1468 56.1748 66.4035 55.7963 66.7859 55.594C67.1675 55.3916 67.6243 55.3924 68.0052 55.5962C68.2879 55.7448 75.1173 59.2064 80.9729 52.0322C81.2206 51.7291 81.5896 51.5537 81.9802 51.5537C82.3707 51.5537 82.7397 51.7291 82.9875 52.0322C88.8431 59.2072 95.6725 55.7455 95.9604 55.594C96.342 55.3946 96.7988 55.3954 97.1775 55.5977C97.5569 55.8007 97.8143 56.177 97.8619 56.6055C97.9013 56.9616 98.7665 65.3818 93.8074 71.048C91.0518 74.1976 87.0807 75.8437 82.0055 75.9423C81.9973 75.9423 81.9891 75.9423 81.9802 75.9423H81.9809ZM68.6301 58.5995C68.6554 61.128 69.1367 65.935 72.1207 69.3354C74.3689 71.8975 77.6861 73.2413 81.9809 73.3294C86.2757 73.2413 89.593 71.8983 91.8412 69.3354C94.8251 65.9357 95.3064 61.1288 95.3317 58.5995C92.5241 59.4088 86.9832 60.0336 81.9809 54.8265C76.9786 60.0336 71.437 59.408 68.6301 58.5995Z" fill="#650000"/>
<path d="M83.4692 49.2603V52.8594L83.2438 52.0688L83.3248 52.1771C83.3554 52.2196 83.3918 52.2659 83.4297 52.3129C83.5026 52.4055 83.5763 52.4988 83.6589 52.5914C83.8129 52.7795 83.9899 52.9549 84.1543 53.1393C84.5018 53.4939 84.8663 53.8336 85.2531 54.1427C86.0201 54.769 86.863 55.2856 87.7498 55.682C88.6448 56.0628 89.5866 56.2964 90.5515 56.4375L91.285 56.4801C91.4078 56.4861 91.5298 56.4995 91.6525 56.501L92.0238 56.4808L92.7677 56.448L93.499 56.342L93.8665 56.2905C93.9885 56.2725 94.0986 56.23 94.2154 56.2009L94.9095 56.0128L95.5515 55.7418L95.7137 55.6761L95.8573 55.5872L96.1474 55.4125C96.9159 54.9467 97.5364 54.2972 97.9195 53.4932C98.3079 52.6892 98.4328 51.7553 98.4187 50.796C98.3994 49.8262 98.2186 48.8356 97.8362 47.765L97.8303 47.7486C97.7752 47.5941 97.8555 47.4231 98.0095 47.3679C98.0973 47.3365 98.1911 47.3492 98.2647 47.3947C99.3375 48.0577 100.072 49.2223 100.403 50.4824C100.738 51.7523 100.631 53.1528 100.142 54.4323C99.6589 55.7186 98.7461 56.8481 97.6472 57.6372L97.2269 57.9224L97.0156 58.0635L96.7939 58.1747L95.899 58.6107C95.594 58.7212 95.2867 58.8212 94.9787 58.9242C94.8247 58.9713 94.67 59.034 94.5152 59.0676L94.0503 59.1654C93.7401 59.2288 93.4291 59.296 93.1166 59.352L92.1741 59.4356L91.7016 59.4744C91.5432 59.4789 91.384 59.4707 91.2248 59.4685L90.2688 59.4431C88.9937 59.3229 87.729 59.0243 86.5402 58.5323C85.3536 58.0366 84.2667 57.3431 83.2899 56.5383C82.8004 56.1359 82.3518 55.6888 81.921 55.2259C81.7112 54.987 81.5044 54.7481 81.311 54.4906C81.212 54.3666 81.1161 54.2338 81.0208 54.0994C80.9732 54.0337 80.9256 53.9665 80.8773 53.8918L80.7203 53.6492C80.567 53.4096 80.4941 53.1416 80.4941 52.8766V52.8586V49.2596C80.4941 48.4354 81.16 47.7665 81.982 47.7665C82.8041 47.7665 83.4699 48.4354 83.4699 49.2596L83.4692 49.2603Z" fill="#650000"/>
<path d="M83.4693 49.2602V52.8787C83.4693 53.1631 83.3867 53.4274 83.2438 53.6506L83.0869 53.8932C83.0385 53.9671 82.9909 54.0351 82.9433 54.1008C82.8481 54.2352 82.7528 54.368 82.6532 54.492C82.4597 54.7495 82.2522 54.9884 82.0431 55.2273C81.6124 55.6902 81.1638 56.1373 80.6743 56.5397C79.6982 57.3445 78.6106 58.038 77.424 58.5337C76.2352 59.0257 74.9705 59.3243 73.6953 59.4445L72.7394 59.4699C72.5802 59.4721 72.421 59.4803 72.2625 59.4758L71.7901 59.437L70.8475 59.3534C70.5351 59.2974 70.2241 59.2295 69.9139 59.1668L69.4489 59.069C69.2942 59.0354 69.1402 58.9727 68.9854 58.9256C68.6774 58.8226 68.3694 58.7226 68.0652 58.6121L67.1702 58.1761L66.9485 58.0649L66.7372 57.9238L66.3169 57.6386C65.2181 56.8495 64.3045 55.72 63.8225 54.4337C63.3329 53.1542 63.2258 51.7537 63.5613 50.4838C63.8924 49.2244 64.6267 48.0591 65.6994 47.3961C65.8393 47.3103 66.0216 47.3536 66.1079 47.4932C66.157 47.5731 66.1637 47.6664 66.1354 47.7485L66.1287 47.7664C65.7463 48.8377 65.5648 49.8284 65.5462 50.7974C65.5313 51.7574 65.657 52.6906 66.0454 53.4946C66.4285 54.2986 67.0489 54.9481 67.8174 55.4139L68.1076 55.5886L68.2512 55.6775L68.4133 55.7432L69.0554 56.0142L69.7495 56.2023C69.8663 56.2306 69.9764 56.2739 70.0984 56.2919L70.4659 56.3434L71.1972 56.4494L71.9411 56.4822L72.3123 56.5024C72.4351 56.5009 72.5578 56.4875 72.6799 56.4815L73.4134 56.4389C74.3783 56.2978 75.3201 56.0642 76.2151 55.6834C77.1019 55.287 77.944 54.7704 78.7118 54.1441C79.0986 53.835 79.4631 53.4953 79.8105 53.1407C79.975 52.9571 80.152 52.7809 80.306 52.5928C80.3886 52.5002 80.4622 52.4076 80.5352 52.3143C80.5731 52.2673 80.6095 52.2218 80.64 52.1785L80.7211 52.0702L80.4957 52.8608V49.2617C80.4957 48.4376 81.1616 47.7687 81.9836 47.7687C82.8057 47.7687 83.4715 48.4376 83.4715 49.2617L83.4693 49.2602Z" fill="#650000"/>
<path d="M48.0295 46.0639C47.9008 45.1188 48.0243 44.2274 48.3018 43.3473C48.583 42.4738 49.0398 41.634 49.6595 40.8912C50.2718 40.1379 51.0916 39.5422 51.9583 39.0465L52.6368 38.7203C52.8629 38.6075 53.1055 38.5493 53.3406 38.4642C53.8137 38.2828 54.3002 38.2089 54.7868 38.1215C56.6794 37.8057 58.7862 38.1253 60.5434 39.1025C61.4272 39.5773 62.1965 40.22 62.8444 40.9382C63.0074 41.1174 63.1606 41.304 63.3101 41.4929C63.4515 41.6885 63.5936 41.8818 63.7253 42.0834C63.8562 42.2857 63.9834 42.4903 64.095 42.7083C64.1538 42.8128 64.2088 42.9285 64.2639 43.0405C64.2914 43.095 64.3189 43.1547 64.3457 43.2189L64.438 43.4354C64.8159 44.2349 64.4766 45.1912 63.6799 45.5712C62.8831 45.9512 61.9301 45.61 61.5515 44.8105C61.5485 44.818 61.5262 44.7874 61.5046 44.7605L61.4391 44.6769C61.3923 44.6171 61.3491 44.5574 61.2955 44.4962L60.9846 44.1319C60.7703 43.8915 60.536 43.6705 60.3046 43.4555C59.8307 43.0345 59.3196 42.6844 58.7825 42.4231C58.2409 42.173 57.6911 41.955 57.093 41.8706C56.9487 41.8303 56.7954 41.8258 56.6429 41.8132C56.4904 41.8012 56.3401 41.7781 56.1854 41.7699L55.7137 41.7803C55.5553 41.7781 55.3968 41.7751 55.2488 41.8035C54.9467 41.8408 54.6372 41.8632 54.3531 41.9498C54.2102 41.9901 54.054 42.002 53.9186 42.0617C53.7802 42.1155 53.6419 42.1685 53.4998 42.2178C52.9522 42.4544 52.4225 42.7575 51.9263 43.1659C51.4249 43.5645 50.922 44.0222 50.4191 44.5447C49.9206 45.0636 49.4044 45.6556 48.8672 46.261L48.8233 46.3103C48.6552 46.4999 48.3658 46.5163 48.1768 46.3476C48.092 46.2722 48.0422 46.1714 48.0281 46.0669L48.0295 46.0639Z" fill="#650000"/>
<path d="M115.091 46.2586C114.554 45.6539 114.037 45.0611 113.539 44.5423C113.036 44.0197 112.533 43.5621 112.032 43.1634C111.536 42.7551 111.006 42.452 110.458 42.2153C110.316 42.1661 110.178 42.1131 110.04 42.0593C109.904 41.9996 109.747 41.9884 109.605 41.9473C109.321 41.8607 109.012 41.8383 108.709 41.801C108.561 41.7726 108.403 41.7756 108.244 41.7779L107.773 41.7674C107.618 41.7756 107.468 41.7988 107.315 41.8107C107.163 41.8241 107.009 41.8279 106.865 41.8682C106.267 41.9526 105.717 42.1705 105.176 42.4206C104.639 42.6819 104.128 43.0328 103.654 43.4531C103.422 43.6681 103.188 43.8891 102.974 44.1294L102.663 44.4938C102.609 44.555 102.566 44.6147 102.519 44.6744L102.454 44.758C102.432 44.7849 102.41 44.8155 102.407 44.808C102.029 45.6076 101.076 45.9488 100.278 45.5688C99.4807 45.1895 99.1415 44.2332 99.5202 43.4329L99.6124 43.2164C99.6392 43.1522 99.6667 43.0925 99.6943 43.038C99.7493 42.926 99.8044 42.8103 99.8631 42.7058C99.9755 42.4878 100.102 42.2833 100.233 42.081C100.365 41.8794 100.506 41.686 100.648 41.4904C100.798 41.3016 100.951 41.1149 101.114 40.9358C101.762 40.2176 102.531 39.5748 103.415 39.1C105.173 38.1228 107.279 37.8033 109.171 38.1191C109.658 38.2057 110.144 38.2803 110.618 38.4617C110.853 38.5476 111.096 38.6058 111.321 38.7178L112 39.044C112.867 39.5397 113.686 40.1355 114.299 40.8887C114.918 41.6315 115.375 42.4714 115.656 43.3448C115.934 44.225 116.057 45.1164 115.929 46.0615C115.894 46.3131 115.664 46.4892 115.413 46.4549C115.301 46.44 115.203 46.3847 115.133 46.3056L115.089 46.2556L115.091 46.2586Z" fill="#650000"/>
<path d="M29.4763 33.7233C29.4763 33.7233 33.6208 23.3651 43.9035 15.4466C43.9035 15.4466 39.765 12.4657 34.0225 12.2462C30.1123 12.0969 26.7995 15.1391 26.6619 19.0636C26.5325 22.7597 27.0078 27.9377 29.4763 33.7241V33.7233Z" fill="#F76D9B"/>
<g opacity="0.3">
<path d="M29.5286 21.5921C29.6566 17.958 32.7238 15.1406 36.3454 15.2787C38.752 15.3705 40.8522 15.9864 42.4323 16.6329C42.9092 16.2328 43.3957 15.8363 43.9016 15.4459C43.9016 15.4459 39.763 12.465 34.0205 12.2455C30.1104 12.0962 26.7976 15.1383 26.66 19.0621C26.5305 22.7582 27.0059 27.9362 29.4743 33.7226C29.4743 33.7226 29.8693 32.7379 30.713 31.147C29.6603 27.4271 29.4386 24.1311 29.5279 21.5914L29.5286 21.5921Z" fill="#650000"/>
</g>
<path d="M29.4756 35.2157C28.8804 35.2157 28.3418 34.8603 28.1075 34.3109C25.4575 28.0975 25.0491 22.5612 25.1741 19.0106C25.2544 16.7285 26.2186 14.6135 27.8895 13.0555C29.576 11.4833 31.7706 10.6644 34.0783 10.754C40.198 10.9876 44.5865 14.1007 44.7703 14.2328C45.1527 14.5083 45.3826 14.9495 45.3907 15.422C45.3982 15.8946 45.1824 16.3425 44.809 16.6307C34.9964 24.1879 30.8965 34.181 30.8563 34.281C30.6317 34.8402 30.093 35.2097 29.4919 35.2157H29.4763H29.4756ZM33.7436 13.7341C32.3159 13.7341 30.9634 14.2657 29.9152 15.2436C28.8276 16.2574 28.2004 17.6325 28.1484 19.1159C28.0561 21.7422 28.2838 25.5608 29.663 29.9444C31.5586 26.4678 35.2605 20.7546 41.2753 15.6535C39.6587 14.8562 37.0511 13.8558 33.9653 13.7379C33.8916 13.7349 33.818 13.7334 33.7443 13.7334L33.7436 13.7341Z" fill="#650000"/>
<path d="M134.48 33.7233C134.48 33.7233 130.336 23.3651 120.053 15.4466C120.053 15.4466 124.191 12.4657 129.934 12.2462C133.844 12.0969 137.157 15.1391 137.294 19.0636C137.424 22.7597 136.948 27.9377 134.48 33.7241V33.7233Z" fill="#F76D9B"/>
<g opacity="0.3">
<path d="M134.426 21.5919C134.298 17.9578 131.23 15.1403 127.609 15.2784C125.202 15.3703 123.102 15.9862 121.522 16.6326C121.045 16.2325 120.559 15.8361 120.053 15.4457C120.053 15.4457 124.191 12.4647 129.934 12.2453C133.844 12.096 137.157 15.1381 137.294 19.0619C137.424 22.758 136.948 27.9359 134.48 33.7223C134.48 33.7223 134.085 32.7377 133.241 31.1468C134.294 27.4268 134.516 24.1309 134.426 21.5911L134.426 21.5919Z" fill="#650000"/>
</g>
<path d="M134.48 35.2164H134.463C133.862 35.2096 133.324 34.8401 133.099 34.2809C133.051 34.163 128.95 24.1811 119.146 16.6306C118.773 16.3432 118.557 15.8953 118.565 15.422C118.572 14.9494 118.802 14.5082 119.184 14.2327C119.368 14.1006 123.757 10.9875 129.876 10.7539C132.184 10.6613 134.379 11.4832 136.065 13.0554C137.736 14.6135 138.7 16.7284 138.781 19.0106C138.906 22.5611 138.498 28.0974 135.847 34.3108C135.613 34.8603 135.074 35.2164 134.48 35.2164ZM122.68 15.6534C128.694 20.7545 132.397 26.4677 134.292 29.9443C135.672 25.5599 135.899 21.7421 135.807 19.1158C135.755 17.6325 135.128 16.2573 134.04 15.2435C132.938 14.2156 131.5 13.6773 129.99 13.7385C126.905 13.8565 124.297 14.8561 122.68 15.6541V15.6534Z" fill="#650000"/>
<path d="M53.5191 173.315C52.581 173.315 51.6526 173.296 50.7338 173.256C36.7693 172.66 26.3496 168.187 19.7642 159.964C9.95382 147.713 11.1724 130.604 12.7719 121.497C13.1089 119.579 13.6572 117.565 14.4487 115.339C15.9641 111.079 16.0795 105.976 16.0571 103.938C14.5142 103.192 11.3405 101.367 8.21076 97.7873C4.32812 93.347 -0.245641 85.2217 0.0102755 71.7288C0.266936 58.1993 6.22146 49.7104 11.1717 44.9714C14.9687 41.3366 18.7219 39.3134 20.6726 38.4124C18.4913 31.9436 17.4252 25.08 17.5011 17.9864C17.5904 9.64239 24.1736 2.78546 32.4879 2.37487C43.127 1.8508 51.0255 5.632 53.4284 6.94963C66.2175 0.513751 81.3434 0.588407 81.9913 0.596618C82.6125 0.589153 97.7362 0.514498 110.525 6.94963C112.927 5.63275 120.829 1.84781 131.465 2.37487C139.779 2.78546 146.363 9.64239 146.452 17.9864C146.528 25.0793 145.462 31.9436 143.28 38.4124C145.231 39.3134 148.984 41.3366 152.781 44.9714C157.731 49.7104 163.686 58.1993 163.943 71.7288C164.199 85.2224 159.625 93.3477 155.742 97.7873C152.612 101.367 149.439 103.192 147.896 103.938C147.874 105.975 147.989 111.079 149.504 115.339C150.296 117.564 150.845 119.578 151.181 121.497C152.781 130.605 153.998 147.713 144.189 159.964C137.603 168.188 127.184 172.66 113.219 173.256C108.504 173.458 103.524 173.141 98.4176 172.315C94.4598 171.676 88.3952 170.913 81.9757 170.913C75.5562 170.913 69.4916 171.675 65.5338 172.315C61.4228 172.981 57.3929 173.315 53.5177 173.315H53.5191ZM34.4623 5.31248C33.8627 5.31248 33.2541 5.32667 32.6344 5.35728C25.8898 5.69023 20.5498 11.2519 20.4769 18.0185C20.3995 25.2427 21.5638 32.2117 23.9385 38.7304C24.0746 39.1044 24.056 39.518 23.8871 39.8786C23.7183 40.2392 23.4125 40.5169 23.0383 40.6497C22.9914 40.6669 18.0479 42.4795 13.1334 47.2207C6.58971 53.5342 3.17576 61.7991 2.98605 71.7855C2.79932 81.6316 5.34063 89.8972 10.3355 95.6881C14.1043 100.058 17.9921 101.535 18.0316 101.55C18.5873 101.756 18.9727 102.276 19.0054 102.869C19.0218 103.171 19.39 110.334 17.2519 116.343C16.5169 118.409 16.0103 120.263 15.703 122.015C14.4859 128.946 12.6715 146.338 22.0846 158.093C28.109 165.617 37.7907 169.715 50.861 170.273C55.3768 170.467 60.1536 170.161 65.0622 169.367C69.1271 168.71 75.3613 167.927 81.978 167.927C88.5946 167.927 94.8281 168.71 98.893 169.367C103.802 170.161 108.58 170.467 113.094 170.273C126.164 169.715 135.846 165.617 141.871 158.093C151.284 146.338 149.469 128.946 148.252 122.015C147.945 120.263 147.438 118.408 146.703 116.343C144.564 110.334 144.933 103.171 144.95 102.869C144.983 102.272 145.368 101.751 145.928 101.548C145.962 101.535 149.85 100.058 153.62 95.6881C158.615 89.8972 161.156 81.6316 160.969 71.7855C160.779 61.7991 157.365 53.5342 150.822 47.2207C145.907 42.4788 140.964 40.6669 140.914 40.649C140.541 40.5146 140.235 40.2362 140.067 39.8763C139.899 39.5165 139.88 39.1029 140.016 38.7297C142.391 32.2109 143.555 25.2427 143.478 18.0178C143.405 11.2512 138.065 5.68949 131.32 5.35653C119.72 4.78394 111.436 9.86262 111.354 9.91413C110.905 10.1941 110.342 10.215 109.874 9.96937C97.5948 3.49989 82.1491 3.57753 81.9921 3.58127C81.815 3.58649 66.338 3.51109 54.0801 9.96937C53.6121 10.2165 53.0475 10.1948 52.5989 9.91263C52.523 9.86486 45.0947 5.31099 34.4623 5.31099V5.31248Z" fill="#650000"/>
<path d="M26.2475 78.9552C13.2857 89.2372 32.8232 111.709 32.8232 111.709L53.1485 96.4719C53.1485 96.4719 38.8008 68.9964 26.2467 78.9552H26.2475Z" fill="white"/>
<path d="M32.5188 111.976C31.0361 111.193 29.9574 110.051 28.9911 108.829C28.0105 107.617 27.1781 106.293 26.3999 104.941C25.624 103.586 24.8443 102.232 24.1331 100.834C23.4197 99.4371 22.7873 97.9911 22.2353 96.5055C21.6803 95.0221 21.231 93.482 20.9438 91.8911C20.6559 90.3025 20.5183 88.6594 20.6544 86.9969C20.8062 85.338 21.2533 83.6688 22.0404 82.16L22.335 81.5942C22.4369 81.4075 22.5686 81.2396 22.6839 81.0619L23.044 80.5371L23.2255 80.2758L23.4331 80.0369L24.2722 79.0903L25.2066 78.2564C26.4594 77.1635 27.9986 76.3035 29.6851 75.869C31.3732 75.4308 33.1757 75.489 34.8079 75.9212C36.4498 76.3475 37.9444 77.0881 39.3103 77.9556C40.6732 78.832 41.9186 79.8391 43.0776 80.9171C45.3965 83.0753 47.3962 85.4933 49.2315 88.0069C49.6898 88.6362 50.1347 89.2738 50.5728 89.9158C51.0081 90.5593 51.4797 91.1789 51.9172 91.8224C52.3509 92.4682 52.734 93.1468 53.0346 93.8732C53.3254 94.6048 53.5382 95.3789 53.5055 96.2845C53.4958 96.542 53.2801 96.7429 53.0234 96.7339C52.9438 96.7309 52.8701 96.7085 52.8062 96.6705L52.7898 96.6608C52.0384 96.2158 51.4924 95.6626 51.0081 95.0766C50.5327 94.4853 50.1168 93.8605 49.7337 93.214C49.3535 92.566 48.9883 91.9061 48.5664 91.2842C48.1469 90.6608 47.7146 90.0472 47.2742 89.4403C45.5073 87.0192 43.5887 84.708 41.4313 82.702C40.3548 81.7002 39.2136 80.7819 38.0076 80.0063C36.8002 79.2396 35.5221 78.6177 34.2061 78.2773C32.8923 77.9317 31.5472 77.8996 30.2781 78.2266C29.0119 78.5558 27.803 79.2075 26.76 80.1227C24.5943 81.8823 23.3058 84.4265 23.067 87.2096C22.9539 88.6019 23.0685 90.033 23.3259 91.4514C23.5811 92.8713 23.9895 94.283 24.5073 95.6626C25.0214 97.0437 25.615 98.4054 26.2928 99.7327C26.9698 101.059 27.6973 102.369 28.5261 103.616C29.3526 104.866 30.2238 106.084 31.0302 107.35C31.8567 108.605 32.6319 109.896 33.1266 111.443L33.1318 111.459C33.2048 111.687 33.0798 111.932 32.8521 112.005C32.7376 112.042 32.617 112.027 32.5181 111.976H32.5188Z" fill="#650000"/>
<path d="M24.9662 82.643C25.0287 82.8394 25.1031 83.1298 25.1708 83.3814L25.3858 84.1712C25.5324 84.7005 25.6826 85.2335 25.8485 85.7673C26.0219 86.2973 26.184 86.8401 26.3737 87.3828C26.5419 87.9397 26.7472 88.4839 26.9057 89.0976L26.9094 89.1118C26.9518 89.276 26.8536 89.4432 26.6899 89.4858C26.6066 89.5074 26.5225 89.4917 26.4541 89.4507C25.9014 89.1125 25.4141 88.6877 24.9856 88.2152C24.5585 87.7404 24.1799 87.2215 23.8629 86.6683C23.5341 86.1204 23.2589 85.5403 23.0379 84.9379C22.9226 84.6385 22.8326 84.3287 22.7485 84.0159C22.6704 83.6904 22.6072 83.4015 22.57 83.0111C22.5067 82.3429 22.9948 81.7502 23.6606 81.6867C24.2379 81.6315 24.7594 81.9928 24.9283 82.5258L24.9655 82.6438L24.9662 82.643Z" fill="#650000"/>
<path d="M31.7975 77.9458C31.86 78.1421 31.9344 78.4325 32.0021 78.6841L32.2171 79.4739C32.3636 80.0032 32.5139 80.5362 32.6798 81.07C32.8531 81.6001 33.0153 82.1428 33.205 82.6855C33.3732 83.2424 33.5792 83.7867 33.737 84.4003L33.7407 84.4145C33.7831 84.5787 33.6849 84.746 33.5212 84.7885C33.4379 84.8102 33.3538 84.7945 33.2854 84.7534C32.7326 84.4152 32.2453 83.9905 31.8176 83.5179C31.3906 83.0431 31.0119 82.5243 30.695 81.9711C30.3661 81.4231 30.0909 80.8431 29.8699 80.2406C29.7546 79.9413 29.6646 79.6314 29.5805 79.3186C29.5024 78.9932 29.4392 78.7042 29.402 78.3138C29.3388 77.6457 29.8268 77.0529 30.4926 76.9895C31.0699 76.9342 31.5914 77.2955 31.7603 77.8286L31.7975 77.9465V77.9458Z" fill="#650000"/>
<path d="M137.71 78.9552C150.671 89.2372 131.134 111.709 131.134 111.709L110.809 96.4719C110.809 96.4719 125.156 68.9964 137.71 78.9552H137.71Z" fill="white"/>
<path d="M130.828 111.443C131.322 109.895 132.097 108.605 132.924 107.35C133.73 106.083 134.602 104.866 135.427 103.616C136.256 102.368 136.984 101.059 137.661 99.7327C138.339 98.4054 138.932 97.0437 139.446 95.6626C139.964 94.2823 140.372 92.8713 140.627 91.4514C140.885 90.033 140.999 88.6019 140.886 87.2096C140.648 84.4265 139.359 81.8831 137.193 80.1227C136.15 79.2075 134.941 78.5558 133.675 78.2266C132.405 77.8996 131.061 77.9317 129.747 78.2773C128.431 78.6177 127.153 79.2396 125.946 80.0063C124.741 80.7819 123.599 81.6994 122.522 82.702C120.365 84.708 118.446 87.02 116.679 89.4403C116.239 90.0472 115.807 90.6608 115.387 91.2842C114.964 91.9061 114.6 92.5653 114.22 93.214C113.837 93.8605 113.421 94.4846 112.945 95.0766C112.461 95.6626 111.915 96.2158 111.164 96.6607L111.149 96.669C110.929 96.8004 110.643 96.7264 110.513 96.5047C110.472 96.436 110.452 96.3591 110.449 96.2845C110.416 95.3797 110.628 94.6055 110.92 93.8732C111.22 93.1475 111.603 92.4682 112.037 91.8224C112.474 91.1789 112.947 90.5593 113.381 89.9158C113.819 89.2738 114.264 88.6362 114.723 88.0069C116.559 85.4941 118.558 83.076 120.877 80.9171C122.036 79.8391 123.282 78.832 124.644 77.9556C126.01 77.0888 127.504 76.3475 129.146 75.9212C130.778 75.489 132.581 75.4308 134.269 75.869C135.955 76.3035 137.495 77.1642 138.748 78.2564L139.682 79.0903L140.521 80.0369L140.729 80.2758L140.91 80.5371L141.27 81.0619C141.386 81.2396 141.518 81.4075 141.619 81.5942L141.914 82.16C142.701 83.668 143.148 85.3373 143.3 86.9968C143.435 88.6594 143.298 90.3025 143.01 91.8911C142.723 93.4828 142.275 95.0221 141.719 96.5055C141.166 97.9903 140.534 99.4371 139.821 100.834C139.111 102.232 138.331 103.586 137.554 104.941C136.775 106.293 135.944 107.617 134.963 108.829C133.997 110.051 132.918 111.193 131.435 111.976C131.224 112.088 130.962 112.006 130.851 111.794C130.795 111.687 130.787 111.567 130.821 111.46L130.826 111.443H130.828Z" fill="#650000"/>
<path d="M141.384 83.0106C141.347 83.401 141.284 83.6906 141.205 84.0154C141.122 84.3282 141.031 84.638 140.916 84.9374C140.695 85.5398 140.42 86.1199 140.091 86.6678C139.774 87.221 139.395 87.7399 138.968 88.2147C138.541 88.688 138.053 89.1127 137.5 89.4502C137.356 89.5383 137.167 89.4927 137.08 89.3479C137.035 89.2747 137.025 89.1896 137.045 89.1127L137.048 89.0978C137.207 88.4834 137.412 87.9392 137.58 87.383C137.769 86.8403 137.932 86.2976 138.105 85.7675C138.271 85.2337 138.422 84.7 138.568 84.1714L138.783 83.3816C138.851 83.13 138.925 82.8396 138.988 82.6433L139.025 82.5261C139.229 81.887 139.91 81.5347 140.546 81.7385C141.099 81.9154 141.436 82.4544 141.383 83.0106H141.384Z" fill="#650000"/>
<path d="M134.554 78.314C134.517 78.7045 134.455 78.9941 134.376 79.3189C134.292 79.6317 134.202 79.9415 134.086 80.2408C133.865 80.8433 133.59 81.4233 133.261 81.9713C132.944 82.5245 132.566 83.0433 132.139 83.5181C131.711 83.9914 131.224 84.4162 130.67 84.7536C130.526 84.8417 130.338 84.7962 130.25 84.6514C130.205 84.5782 130.195 84.4931 130.215 84.4162L130.219 84.4013C130.377 83.7869 130.582 83.2427 130.751 82.6865C130.939 82.1438 131.102 81.601 131.276 81.071C131.442 80.5372 131.592 80.0034 131.738 79.4749L131.953 78.685C132.021 78.4335 132.096 78.1431 132.158 77.9467L132.195 77.8295C132.399 77.1905 133.08 76.8381 133.717 77.0419C134.269 77.2189 134.606 77.7579 134.554 78.314H134.554Z" fill="#650000"/>
</svg>
