<svg version="1.2" xmlns="http://www.w3.org/2000/svg" viewBox="0 0 200 87" width="200" height="87">
	<style>
		.s0 { fill: #390176 } 
		.s1 { fill: #390565 } 
	</style>
	<path id="Layer" fill-rule="evenodd" class="s0" d="m100 86.8q-5.1 0-10.2-0.2c-13.9-0.6-27-2.4-39-5.4l-30.3 2.4c-5.6 0.2-11.2 1.8-13.1 1.6-1.9-0.9-1.7-2-0.9-3.2l12.1-16c-10.2-7.8-20.3-17.9-18.1-26.9 5.6-23.7 54.8-41 109.7-38.6 26.6 1.2 50.5 6.8 67.3 15.7 16.9 9 24.7 20.3 22 31.8-5.3 22.2-48.9 38.8-99.5 38.8zm-48.7-11.8c1 0 6.6 2.4 9.4 3.2 2.8 0.8 16.5 3.2 29.1 3.8 46.2 2.1 100.9-16 102.7-38.2 2.3-9.7-9.1-17.3-23.4-24.9-14.2-7.5-36.5-13.4-58.9-14.4-22.4-1-47.9 1.9-65.4 8-21.5 5.6-36 17.6-38.3 27.3-1.9 8 7.1 15.9 16.8 22.8 1.2 0.8 4.4 3.3 3.8 4.2l-13.1 13c0 0 14-0.8 18.7-1.6 0 0 14-1.6 15.9-2.4 1.8-0.8 1.7-0.7 2.7-0.8z"/>
	<g id="Layer" style="opacity: .3">
		<path id="Layer" class="s1" d="m20.7 63.7c25.4 9.1 60.5 13.2 95.3 9.5 38.6-4.1 68.1-18.2 78.4-33.4 0.2 2-1 5.6-1.5 7.7-5.2 21.7-50.8 37.6-101.9 35.3-14.2-0.6-27.3-2.6-38.7-5.5l-43 4.1 11.9-17.3q-0.2-0.2-0.5-0.4z"/>
	</g>
</svg>