<svg width="342" height="363" viewBox="0 0 342 363" fill="none" xmlns="http://www.w3.org/2000/svg">
<path d="M342 171.274C342 200.604 334.642 228.207 321.667 252.342C296.803 298.611 251.314 332.109 197.524 340.497H197.517C188.874 341.848 180.018 342.548 171 342.548C164.834 342.548 158.742 342.223 152.752 341.579C101.551 336.14 57.0982 308.075 29.5566 267.55C10.9027 240.108 0 206.966 0 171.274C0 76.6794 76.5567 0 171 0C265.443 0 342 76.6794 342 171.274Z" fill="#E8C0FF"/>
<path d="M328.007 238.631C321.373 253.396 310.008 271.047 302.869 279.7C286.543 299.49 265.867 315.548 242.295 326.394C241.933 326.568 241.572 326.731 241.209 326.894C241.096 326.945 240.99 326.994 240.878 327.038C230.037 331.914 218.605 335.689 206.703 338.214C205.904 338.389 205.092 338.552 204.287 338.715C203.364 338.896 202.447 339.071 201.517 339.24C200.199 339.478 198.87 339.697 197.541 339.909H197.534C196.979 339.878 170.586 338.366 159.465 322.901C157.025 319.501 155.077 314.005 154.023 307.142C150.777 286.045 155.908 252.047 180.602 226.412C184.814 222.037 189.601 217.911 195.012 214.129L278.634 199.728C278.634 199.728 286.142 200.066 295.447 205.341C306.693 211.712 316.554 215.824 328.005 238.634L328.007 238.631Z" fill="#FF9331"/>
<g opacity="0.6">
<path d="M328.003 238.377C327.528 239.439 327.022 240.515 326.499 241.603C316.539 224.575 307.601 220.687 297.553 214.992C288.248 209.723 280.74 209.385 280.74 209.385L197.118 223.787C191.708 227.568 186.921 231.694 182.707 236.069C158.698 260.991 153.182 293.827 155.884 315.018C149.718 295.597 152.408 255.422 180.605 226.156C184.817 221.78 189.603 217.655 195.015 213.873L278.637 199.472C278.637 199.472 286.146 199.809 295.444 205.079C306.697 211.454 316.557 215.568 328.003 238.377Z" fill="white"/>
</g>
<path d="M302.87 279.698C278.243 309.559 243.7 330.918 204.289 338.714C201.144 330.643 199.396 321.686 199.396 312.253C199.396 276.692 224.267 247.869 254.941 247.869C275.367 247.869 293.222 260.653 302.871 279.698H302.87Z" fill="#F2D4D4"/>
<path d="M197.542 342.408C197.495 342.408 197.442 342.408 197.396 342.404C196.248 342.34 169.144 340.635 157.442 324.361C151.598 316.234 149.233 299.158 151.557 281.869C154.467 260.209 164.145 239.896 178.809 224.674C183.239 220.073 188.212 215.835 193.587 212.078C193.888 211.868 194.231 211.726 194.593 211.664L278.215 197.262C278.561 197.203 278.918 197.217 279.259 197.305C279.522 197.372 285.821 199.007 295.832 202.803C305.352 206.414 319.05 215.364 330.234 237.503C330.547 238.121 330.59 238.843 330.351 239.494C325.418 252.945 312.437 272.035 304.794 281.294C279.317 312.186 243.795 333.449 204.772 341.168C202.579 341.604 200.339 342 197.929 342.379C197.801 342.398 197.672 342.408 197.542 342.408ZM195.989 216.497C191.053 219.989 186.483 223.906 182.4 228.147C168.47 242.608 159.272 261.924 156.503 282.537C154.016 301.039 157.346 315.673 161.491 321.439C171.386 335.199 194.577 337.201 197.422 337.395C199.664 337.039 201.754 336.668 203.801 336.262C241.698 328.766 276.196 308.113 300.943 278.107C307.957 269.608 320.313 251.505 325.277 238.784C314.917 218.792 302.618 210.724 294.061 207.48C285.904 204.387 280.187 202.744 278.516 202.283L195.988 216.497H195.989Z" fill="#390176"/>
<path d="M294.946 208.081C284.16 224.161 257.654 239.424 229.976 239.432C210.685 239.437 193.49 236.417 180.605 226.413C184.818 222.037 189.603 217.91 195.012 214.127L278.637 199.729C278.637 199.729 286.158 201.996 294.946 208.083V208.081Z" fill="#42F4D2"/>
<path d="M224.738 242.112C207.907 242.112 190.12 236.859 179.088 228.398C178.523 227.964 178.169 227.311 178.116 226.601C178.063 225.891 178.315 225.191 178.809 224.678C183.238 220.075 188.209 215.836 193.584 212.078C193.885 211.867 194.228 211.726 194.59 211.664L278.214 197.266C278.314 197.249 278.413 197.238 278.514 197.232C278.902 197.213 288.114 196.835 297.492 203.33C298.573 204.079 298.89 205.538 298.215 206.669C286.159 226.889 261.351 239.741 230.151 241.929C228.366 242.054 226.557 242.115 224.739 242.115L224.738 242.112ZM184.454 226.082C194.387 232.636 211.473 238.222 229.801 236.936C258.256 234.941 280.984 223.769 292.634 206.159C285.94 202.273 279.835 202.207 278.887 202.221L195.989 216.494C191.863 219.414 187.996 222.629 184.454 226.082Z" fill="#390176"/>
<path d="M249.152 253.951C253.539 249.557 253.539 242.433 249.152 238.039C244.765 233.645 237.652 233.645 233.265 238.039C228.879 242.433 228.879 249.557 233.265 253.951C237.652 258.345 244.765 258.345 249.152 253.951Z" fill="#FFB012"/>
<g opacity="0.6">
<path d="M252.439 245.594C250.579 241.936 246.79 239.43 242.416 239.43C236.212 239.43 231.182 244.468 231.182 250.682C231.182 250.813 231.182 250.944 231.189 251.075C230.415 249.55 229.979 247.824 229.979 245.993C229.979 239.78 235.008 234.742 241.212 234.742C247.416 234.742 252.227 239.568 252.439 245.594Z" fill="white"/>
</g>
<g opacity="0.2">
<path d="M252.441 245.995C252.441 252.208 247.412 257.246 241.208 257.246C235.004 257.246 229.975 252.208 229.975 245.995C229.975 245.388 230.025 244.794 230.118 244.213C232.046 247.626 235.703 249.926 239.897 249.926C245.495 249.926 250.138 245.825 250.987 240.456C251.917 242.088 252.441 243.982 252.441 245.995Z" fill="#390176"/>
</g>
<path d="M241.209 259.746C233.638 259.746 227.479 253.577 227.479 245.993C227.479 238.41 233.638 232.241 241.209 232.241C248.779 232.241 254.939 238.411 254.939 245.993C254.939 253.576 248.779 259.746 241.209 259.746ZM241.209 237.243C236.391 237.243 232.472 241.169 232.472 245.995C232.472 250.82 236.391 254.745 241.209 254.745C246.026 254.745 249.945 250.819 249.945 245.995C249.945 241.17 246.026 237.243 241.209 237.243Z" fill="#390176"/>
<path d="M237.59 347.658C228.441 356.629 209.444 355.428 201.517 339.239C200.157 336.457 199.121 333.239 198.528 329.544C198.522 329.537 198.522 329.531 198.522 329.531C198.366 328.593 198.242 327.63 198.147 326.63L175.057 313.503C175.057 313.503 176.136 313.159 178.027 312.653C189.492 309.584 230.756 300.501 240.755 325.655C240.917 326.055 241.067 326.467 241.21 326.886V326.893C244.325 335.994 242.215 343.126 237.591 347.658H237.59Z" fill="#FF9331"/>
<g opacity="0.2">
<path d="M201.517 339.239C200.2 339.477 198.87 339.695 197.541 339.908H197.535C196.979 339.877 170.586 338.364 159.465 322.899C157.025 319.499 155.077 314.004 154.023 307.141C154.098 306.734 154.191 306.353 154.31 306.003C154.31 306.003 165.101 332.963 198.52 329.532C198.52 329.532 198.52 329.539 198.527 329.545C198.701 329.795 201.709 334.145 206.703 338.215C211.727 342.31 218.754 346.11 226.917 345.16C240.603 343.573 241.108 331.227 240.878 327.039C240.834 326.176 240.753 325.657 240.753 325.657L242.294 326.395C241.932 326.569 241.571 326.733 241.208 326.896C250.482 354.005 213.448 363.62 201.516 339.241L201.517 339.239Z" fill="#390176"/>
</g>
<g opacity="0.6">
<path d="M237.59 347.658C242.165 333.306 236.663 323.657 225.786 317.924C207.867 308.478 178.027 312.653 178.027 312.653C189.492 309.584 230.756 300.501 240.754 325.655C240.917 326.055 241.067 326.467 241.21 326.886V326.893C244.325 335.994 242.215 343.126 237.591 347.658H237.59Z" fill="white"/>
</g>
<path d="M174.94 313.138C177.848 311.674 180.874 310.552 183.951 309.561C185.491 309.079 187.043 308.617 188.613 308.232C190.181 307.83 191.761 307.468 193.354 307.161C196.539 306.543 199.773 306.12 203.038 305.923C206.304 305.739 209.599 305.825 212.888 306.135C216.177 306.472 219.472 306.984 222.723 307.869C225.969 308.749 229.185 309.989 232.143 311.812C235.097 313.621 237.791 316 239.856 318.864C241.915 321.723 243.396 324.979 244.22 328.313C245.091 331.649 245.471 335.245 244.864 338.827C244.296 342.402 242.683 345.885 240.253 348.636C237.835 351.411 234.647 353.371 231.285 354.578C227.908 355.788 224.297 356.203 220.756 355.911C217.218 355.591 213.731 354.563 210.624 352.821C207.514 351.094 204.782 348.709 202.674 345.905C200.557 343.113 198.939 339.983 198.076 336.68C197.892 335.847 197.717 335.016 197.567 334.185C197.448 333.35 197.415 332.501 197.365 331.665L197.323 330.412C197.353 329.99 197.378 329.572 197.421 329.153C197.505 328.316 197.603 327.488 197.766 326.666C197.808 326.45 198.019 326.309 198.235 326.352C198.363 326.378 198.465 326.462 198.518 326.572L198.528 326.594C199.945 329.615 200.896 332.513 202.239 335.197C203.546 337.867 204.9 340.444 206.744 342.637C208.581 344.82 210.78 346.653 213.263 347.958C215.743 349.26 218.47 350.094 221.261 350.334C224.046 350.604 226.883 350.291 229.512 349.429C232.129 348.556 234.567 347.129 236.381 345.132C238.199 343.144 239.412 340.662 239.891 337.966C240.367 335.266 240.121 332.39 239.392 329.586C238.693 326.74 237.472 324.11 235.82 321.805C234.158 319.503 231.999 317.587 229.54 316.077C224.591 313.063 218.551 311.662 212.484 311.32C209.437 311.152 206.367 311.181 203.285 311.299C200.202 311.394 197.105 311.582 193.996 311.833C187.771 312.308 181.521 313.098 175.171 313.868H175.161C174.949 313.895 174.755 313.744 174.729 313.53C174.709 313.363 174.799 313.208 174.94 313.137V313.138Z" fill="#390176"/>
<path d="M312.38 267.147C311.313 268.948 308.186 273.848 302.601 280.03C302.601 280.03 312.98 318.503 287.392 323.505C283.692 324.229 280.509 323.723 277.831 322.292C268.133 317.129 265.126 299.814 268.352 284.824C268.676 283.323 269.064 281.842 269.513 280.398V280.385L269.52 280.372C271.891 272.759 275.997 266.208 281.777 262.87C296.337 254.456 309.749 263.982 312.358 266.033C312.658 266.265 312.814 266.402 312.814 266.402C312.814 266.402 312.677 266.658 312.384 267.146L312.38 267.147Z" fill="#FF9331"/>
<g opacity="0.6">
<path d="M312.81 266.403C312.81 266.403 312.673 266.659 312.38 267.147C306.145 265.646 293.889 260.727 284.565 267.042C275.424 273.231 263.496 301.733 277.831 322.292C268.133 317.129 265.126 299.814 268.352 284.824C268.676 283.323 269.064 281.842 269.513 280.398V280.385L269.52 280.372C271.891 272.759 275.997 266.208 281.777 262.87C296.337 254.456 309.749 263.982 312.358 266.033C312.658 266.265 312.814 266.402 312.814 266.402L312.81 266.403Z" fill="white"/>
</g>
<g opacity="0.2">
<path d="M302.601 280.031C302.601 280.031 312.979 318.505 287.392 323.506C270.267 326.85 264.238 303.946 268.35 284.825L269.512 280.413C269.218 281.7 260.956 318.793 283.559 314.93C306.557 310.998 298.806 272.786 298.806 272.786C302.169 272.943 307.992 269.23 312.355 266.036C312.655 266.267 312.811 266.404 312.811 266.404C312.811 266.404 309.69 272.186 302.601 280.031Z" fill="#390176"/>
</g>
<path d="M284.146 326.331C276.601 326.331 270.556 321.502 267.245 312.641C261.087 296.153 265.637 269.309 280.526 260.705C298.091 250.555 314.288 264.377 314.449 264.518C315.33 265.286 315.563 266.565 315.006 267.593C314.878 267.83 311.924 273.245 305.336 280.713C306.515 285.828 309.995 304.164 302.577 316.09C299.292 321.373 294.342 324.692 287.867 325.958C286.591 326.207 285.349 326.33 284.145 326.33L284.146 326.331ZM294.264 261.942C290.761 261.942 286.939 262.773 283.021 265.037C270.736 272.135 266.581 296.592 271.921 310.89C274 316.455 278.287 322.736 286.912 321.05C292.043 320.048 295.78 317.56 298.339 313.447C305.708 301.598 300.243 280.889 300.187 280.682C299.965 279.86 300.177 278.982 300.746 278.35C305.223 273.398 308.082 269.275 309.513 267.033C306.83 265.174 301.169 261.941 294.262 261.941L294.264 261.942Z" fill="#390176"/>
<path d="M300.023 281.229C299.901 280.299 299.735 279.31 299.566 278.349C299.393 277.383 299.207 276.415 298.996 275.454C298.572 273.529 298.096 271.617 297.375 269.749C298.797 271.166 300.062 272.781 301.268 274.419C301.872 275.24 302.454 276.077 303.029 276.923C303.603 277.777 304.157 278.612 304.714 279.521L304.737 279.56C305.476 280.766 305.099 282.343 303.895 283.083C302.691 283.823 301.117 283.445 300.378 282.239C300.186 281.925 300.068 281.574 300.022 281.231L300.023 281.229Z" fill="#390176"/>
<path d="M329.848 140.699C329.848 141.199 329.842 141.712 329.829 142.23C329.205 166.609 307.986 179.736 293.008 182.86L242.457 77.2202V75.3443C245.833 71.0375 251.905 68.137 258.402 67.0309C265.111 65.8808 272.276 66.6376 277.406 69.7192C289.889 77.2202 290.512 90.9723 301.122 97.8483C308.536 102.649 329.693 114.7 329.849 140.699H329.848Z" fill="#AE531E"/>
<g opacity="0.6">
<path d="M329.849 141.208C329.849 141.709 329.843 142.221 329.83 142.74C329.411 159.105 319.714 170.401 308.848 177.001C317.679 170.187 324.794 159.918 325.15 145.954C325.163 145.435 325.169 144.923 325.169 144.422C325.013 118.425 303.857 106.373 296.442 101.572C285.833 94.6956 285.209 80.9435 272.726 73.4426C267.596 70.361 260.431 69.6041 253.722 70.7543C250.384 71.3235 247.157 72.3675 244.355 73.8294C247.862 70.6352 252.986 68.4657 258.403 67.5407C265.112 66.3906 272.277 67.1474 277.407 70.229C289.89 77.7299 290.513 91.4821 301.123 98.3581C308.537 103.159 329.694 115.21 329.85 141.208H329.849Z" fill="white"/>
</g>
<g opacity="0.2">
<path d="M329.848 140.699C329.848 141.199 329.842 141.712 329.829 142.23C329.205 166.609 307.986 179.736 293.008 182.861L242.457 77.2203V75.3444C245.833 71.0376 251.905 68.1371 258.402 67.031C262.784 69.4632 266.852 72.3688 270.422 75.3638C280.807 84.0717 287.553 96.261 296.203 106.7C299.93 111.188 304.049 115.413 306.95 120.47C310.344 126.39 312.16 133.553 317.484 137.816C320.911 140.56 325.553 141.485 329.848 140.697V140.699Z" fill="#390176"/>
</g>
<path d="M185.298 86.0718L175.469 202.807C169.39 203.769 161.789 203.582 154.281 201.544C143.122 198.513 132.156 191.399 126.646 177.91C116.411 152.862 132.432 133.478 137.761 126.209C145.243 116.013 140.95 102.931 149.962 91.486C155.872 83.9721 168.741 80.1531 178.469 82.0471C180.735 82.4843 182.831 83.2347 184.629 84.3227L185.297 86.0731L185.298 86.0718Z" fill="#AE531E"/>
<g opacity="0.2">
<path d="M185.298 86.0717L175.469 202.807C169.39 203.769 161.789 203.582 154.281 201.544C150.393 198.319 147.103 194.337 144.638 189.924C139.378 180.505 137.711 169.309 138.904 158.576C139.777 150.694 142.112 143.056 144.433 135.473C145.588 131.71 146.743 127.948 147.897 124.184C149.314 119.553 150.736 114.914 152.16 110.282C153.271 106.657 154.394 103 156.21 99.6686C159.512 93.6179 164.953 88.9606 170.963 85.5918C173.385 84.2411 175.9 83.0794 178.472 82.047C180.737 82.4843 182.834 83.2346 184.631 84.3226L185.299 86.073L185.298 86.0717Z" fill="#390176"/>
</g>
<g opacity="0.6">
<path d="M185.296 85.4882L185.19 86.7819C175.292 83.4817 160.444 87.2761 153.96 95.5145C144.949 106.96 149.236 120.043 141.753 130.238C136.424 137.507 120.409 156.892 130.644 181.938C131.942 185.114 133.546 187.94 135.38 190.439C131.836 186.964 128.815 182.638 126.644 177.318C116.415 152.277 132.429 132.887 137.758 125.623C145.241 115.422 140.954 102.345 149.965 90.8934C157.255 81.6291 175.11 77.9912 184.633 83.7301L185.294 85.4869L185.296 85.4882Z" fill="white"/>
</g>
<path d="M293.007 185.361C292.062 185.361 291.178 184.822 290.757 183.942L240.206 78.3017C239.891 77.6419 239.89 76.9123 240.143 76.2835C239.819 75.4801 239.922 74.5306 240.494 73.8009C248.2 63.9778 267.477 60.8367 278.691 67.5756C285.804 71.85 289.41 78.0753 292.591 83.5684C295.345 88.3228 297.948 92.8132 302.478 95.75C302.861 95.9983 303.282 96.2674 303.736 96.5559C312.498 102.141 333.017 115.22 332.325 142.294C332.029 153.852 327.247 164.245 318.497 172.35C311.637 178.704 302.532 183.427 293.517 185.308C293.347 185.343 293.177 185.361 293.007 185.361ZM244.829 76.3935L294.391 179.965C306.517 176.776 326.735 165.536 327.334 142.166C327.954 117.92 309.105 105.906 301.056 100.775C300.591 100.478 300.159 100.203 299.765 99.948C294.229 96.3606 291.202 91.134 288.273 86.0782C285.114 80.6252 282.13 75.475 276.122 71.8642C267.323 66.5768 251.25 68.9818 244.829 76.3948V76.3935Z" fill="#390176"/>
<path d="M168.021 205.878C161.179 205.878 154.153 204.561 147.913 202.04C136.86 197.573 128.706 189.556 124.334 178.855C114.092 153.791 128.643 134.269 134.855 125.932C135.177 125.501 135.475 125.1 135.747 124.732C138.942 120.377 139.783 115.254 140.673 109.829C141.701 103.563 142.867 96.4616 148.003 89.9361C156.099 79.6498 175.235 75.7351 185.919 82.179C186.713 82.6577 187.145 83.5103 187.128 84.3758C187.588 84.8738 187.845 85.5556 187.784 86.284L177.955 203.017C177.858 204.163 176.993 205.096 175.859 205.275C173.314 205.68 170.682 205.88 168.022 205.88L168.021 205.878ZM173.28 84.0549C165.308 84.0549 156.328 87.4367 151.924 93.0307C147.586 98.5432 146.621 104.418 145.601 110.639C144.654 116.407 143.675 122.369 139.771 127.692C139.494 128.069 139.188 128.481 138.858 128.923C133.151 136.581 119.785 154.514 128.957 176.961C137.797 198.599 160.682 201.919 173.149 200.591L182.787 86.1443C180.14 84.7186 176.809 84.0562 173.283 84.0562L173.28 84.0549Z" fill="#390176"/>
<path d="M310.171 165.671C308.298 216.303 240.898 227.554 240.898 227.554C240.898 227.554 166.631 240.057 147.447 188.768C133.492 151.475 153.988 131.01 156.022 118.164C158.05 105.318 171.194 72.7324 212.19 66.2806C222.769 64.6182 232.074 65.1176 240.186 67C265.568 72.8941 279.211 92.3346 283.336 101.286C288.011 111.418 305.51 122.214 309.448 150.268C310.096 154.906 310.378 160.014 310.171 165.67V165.671Z" fill="#FF9331"/>
<path d="M309.448 150.268C300.293 157.376 288.797 161.608 276.315 161.608C246.415 161.608 222.176 137.328 222.176 107.382C222.176 91.3423 229.129 76.9278 240.186 67.0012C265.568 72.8954 279.211 92.3359 283.336 101.287C288.011 111.419 305.51 122.215 309.448 150.269V150.268Z" fill="#AE531E"/>
<g opacity="0.6">
<path d="M310.17 164.377C310.163 164.59 310.15 164.803 310.139 165.009C310.02 162.346 309.784 159.821 309.447 157.413C305.508 129.359 288.009 118.565 283.335 108.431C279.665 100.467 268.469 84.2089 248.18 76.5643C248.18 76.5837 248.174 76.6019 248.167 76.62C247.749 78.1013 244.859 78.5825 241.701 77.695C238.574 76.814 236.372 74.92 236.74 73.4439C229.463 72.1631 221.3 71.9937 212.189 73.4258C171.192 79.8762 158.05 112.462 156.021 125.309C154.597 134.304 144.113 147.043 142.759 166.683C141.08 142.154 154.398 127.095 156.021 116.87C158.048 104.025 171.192 71.4387 212.189 64.9869C222.767 63.3245 232.072 63.8239 240.185 65.7063C265.567 71.6004 279.209 91.0409 283.335 99.9921C288.009 110.124 305.508 120.92 309.447 148.974C310.095 153.612 310.377 158.72 310.17 164.376V164.377Z" fill="white"/>
</g>
<g opacity="0.2">
<path d="M310.662 166.683C308.789 217.314 241.389 228.566 241.389 228.566C241.389 228.566 167.123 241.068 147.938 189.779C142.92 176.365 142.358 165.126 143.794 155.637C144.275 161.745 145.685 168.433 148.431 175.777C167.616 227.066 241.883 214.564 241.883 214.564C241.883 214.564 303.979 204.2 310.62 158.594C310.745 161.157 310.77 163.851 310.664 166.683H310.662Z" fill="#390176"/>
</g>
<path d="M221.583 231.408C215.479 231.408 208.395 231.027 200.979 229.865C172.607 225.418 153.287 211.511 145.108 189.645C134.434 161.118 143.394 141.735 149.323 128.908C151.338 124.549 153.078 120.785 153.555 117.771C156.064 101.883 171.467 70.1578 211.802 63.8109C221.966 62.2132 231.705 62.4668 240.749 64.5639C271.673 71.7465 284.268 97.3425 285.602 100.238C286.893 103.034 289.433 106.091 292.376 109.63C299.428 118.113 309.086 129.731 311.919 149.92C312.616 154.9 312.867 160.23 312.666 165.762C311.865 187.405 299.19 205.401 276.009 217.805C258.762 227.034 242.013 229.904 241.308 230.021C240.808 230.105 232.869 231.408 221.585 231.408H221.583ZM224.711 67.7774C220.759 67.7774 216.708 68.1021 212.576 68.7516C175.079 74.6522 160.799 103.908 158.487 118.554C157.901 122.255 156.025 126.313 153.854 131.009C147.941 143.801 139.842 161.32 149.784 187.889C157.401 208.252 174.886 220.712 201.752 224.923C222.081 228.109 240.302 225.117 240.483 225.087C240.651 225.059 257.234 222.206 273.766 213.334C295.527 201.654 306.935 185.586 307.675 165.577C307.866 160.338 307.63 155.303 306.974 150.615C304.337 131.835 295.576 121.297 288.537 112.83C285.368 109.02 282.633 105.728 281.067 102.335C276.606 92.6541 262.856 74.832 239.62 69.436C234.854 68.3311 229.868 67.7774 224.709 67.7774H224.711Z" fill="#390176"/>
<path d="M217.345 152.059L235.944 149.958C238.048 149.72 239.434 152.095 238.195 153.814L229.885 165.348C229.031 166.533 227.336 166.707 226.26 165.72L215.971 156.288C214.426 154.872 215.265 152.293 217.344 152.059H217.345Z" fill="#390176"/>
<path d="M228.117 160.036C229.313 162.667 229.566 165.718 229.07 168.658C228.566 171.605 227.278 174.445 225.431 176.851C223.586 179.268 221.15 181.21 218.467 182.601C215.783 184.011 212.855 184.852 209.858 185.268C206.909 185.612 203.813 185.439 200.885 184.654C197.948 183.885 195.166 182.471 192.824 180.529C192.263 180.014 191.7 179.505 191.154 178.981C190.649 178.414 190.153 177.838 189.676 177.254C189.245 176.63 188.788 176.028 188.391 175.388C188.029 174.724 187.668 174.063 187.363 173.379C186.195 170.617 185.788 167.529 186.543 164.677C186.606 164.439 186.85 164.297 187.088 164.361C187.21 164.393 187.307 164.474 187.364 164.577L187.369 164.586C188.727 167.077 189.96 169.213 191.385 171.16C191.742 171.643 192.129 172.101 192.467 172.582L193.62 173.922C194.033 174.34 194.475 174.73 194.88 175.147L196.224 176.269C198.076 177.684 200.151 178.791 202.37 179.512C204.597 180.224 206.951 180.506 209.339 180.263C211.66 179.996 213.958 179.26 215.965 178.049C217.98 176.847 219.72 175.256 221.223 173.479C222.729 171.693 223.972 169.68 224.969 167.467C225.979 165.249 226.696 162.838 227.29 160.126V160.121C227.343 159.884 227.575 159.734 227.812 159.786C227.951 159.817 228.061 159.913 228.117 160.033V160.036Z" fill="#390176"/>
<path d="M268.863 155.473C270.07 158.146 270.322 161.248 269.8 164.235C269.64 164.972 269.455 165.714 269.256 166.452C268.986 167.163 268.738 167.892 268.421 168.591C268.065 169.268 267.729 169.962 267.34 170.627C266.901 171.257 266.492 171.914 266.014 172.52C264.101 174.947 261.587 176.871 258.839 178.233C257.465 178.921 256.026 179.466 254.557 179.886C253.818 180.064 253.074 180.315 252.342 180.41L251.238 180.598L250.685 180.691C250.41 180.719 250.125 180.74 249.845 180.754L250.072 180.744C249.861 180.758 249.609 180.779 249.431 180.783L248.897 180.801L247.829 180.84C247.649 180.844 247.474 180.855 247.293 180.854L246.737 180.822L245.624 180.754C244.143 180.633 242.67 180.362 241.231 179.956C238.356 179.146 235.641 177.719 233.365 175.776C232.801 175.287 232.275 174.752 231.735 174.239C231.237 173.683 230.773 173.097 230.298 172.526C229.873 171.914 229.442 171.308 229.048 170.682C228.697 170.027 228.364 169.363 228.055 168.696C226.928 165.97 226.547 162.932 227.289 160.128C227.353 159.888 227.597 159.747 227.836 159.811C227.958 159.843 228.055 159.924 228.112 160.028L228.116 160.036C229.45 162.487 230.667 164.592 232.063 166.513C232.425 166.984 232.793 167.442 233.125 167.917C233.521 168.349 233.877 168.804 234.255 169.242L235.492 170.451C235.936 170.819 236.354 171.212 236.805 171.565C238.618 172.965 240.641 174.084 242.811 174.824C243.897 175.189 245.02 175.454 246.161 175.607L247.022 175.695L247.453 175.74C247.602 175.746 247.755 175.74 247.906 175.743H248.817L249.273 175.74L249.619 175.726L249.832 175.717H249.846C249.906 175.704 249.961 175.7 250.026 175.702L250.482 175.631L251.395 175.492C252.022 175.435 252.567 175.207 253.15 175.067C254.297 174.732 255.394 174.242 256.43 173.658C258.503 172.48 260.291 170.883 261.834 169.092C262.231 168.65 262.565 168.16 262.942 167.698C263.299 167.222 263.613 166.715 263.959 166.222L264.863 164.657C265.127 164.113 265.389 163.565 265.677 163.014C266.702 160.764 267.43 158.321 268.037 155.567V155.561C268.09 155.324 268.323 155.175 268.56 155.227C268.699 155.258 268.809 155.354 268.865 155.474L268.863 155.473Z" fill="#390176"/>
<path d="M249.435 178.26L243.081 209.115L223.735 210.365L211.197 182.518C221.619 180.529 228.903 170.81 227.704 160.083C228.928 171.054 238.552 179.012 249.435 178.261V178.26Z" fill="#390176"/>
<path d="M223.734 212.864C222.758 212.864 221.865 212.292 221.46 211.392L208.922 183.545C208.608 182.846 208.63 182.043 208.982 181.364C209.335 180.685 209.98 180.205 210.73 180.061C219.892 178.313 226.257 169.667 225.225 160.373C225.225 160.369 225.225 160.366 225.223 160.36C225.071 158.988 226.057 157.751 227.427 157.598C228.794 157.443 230.032 158.433 230.186 159.805C230.186 159.809 230.186 159.814 230.187 159.818C231.264 169.425 239.646 176.435 249.265 175.766C250.045 175.715 250.803 176.027 251.316 176.616C251.83 177.204 252.038 178 251.88 178.766L245.527 209.621C245.299 210.724 244.364 211.538 243.243 211.611L223.896 212.86C223.841 212.864 223.788 212.866 223.734 212.866V212.864ZM214.684 184.179L225.3 207.758L241.022 206.742L246.373 180.753C239.107 180.242 232.684 176.323 228.839 170.45C226.436 176.793 221.296 181.942 214.684 184.179Z" fill="#390176"/>
<path d="M235.201 222.417C229.904 223.11 225.047 219.373 224.355 214.066L222.655 201.05C221.963 195.745 225.694 190.88 230.992 190.187C236.289 189.493 241.146 193.231 241.838 198.538L243.538 211.554C244.23 216.859 240.499 221.724 235.201 222.417Z" fill="#FF48A0"/>
<path d="M233.922 225C231.256 225 228.679 224.127 226.53 222.473C223.953 220.488 222.301 217.617 221.88 214.389L220.18 201.374C219.309 194.71 224.015 188.577 230.668 187.707C237.32 186.837 243.444 191.548 244.313 198.212L246.013 211.228C246.883 217.892 242.178 224.024 235.525 224.894C234.989 224.964 234.454 224.999 233.922 224.999V225ZM232.253 192.603C231.944 192.603 231.632 192.623 231.318 192.664C227.394 193.179 224.619 196.795 225.132 200.724L226.832 213.74C227.08 215.644 228.055 217.338 229.574 218.507C231.094 219.677 232.977 220.185 234.879 219.936C238.803 219.421 241.577 215.805 241.064 211.876L239.365 198.86C238.892 195.244 235.8 192.603 232.253 192.603Z" fill="#390176"/>
<path d="M218.264 352.701C218.244 352.152 218.275 351.489 218.31 350.878C218.335 350.253 218.383 349.628 218.432 349.001C218.522 347.747 218.658 346.485 218.735 345.21C218.82 343.936 218.87 342.65 218.87 341.349C218.906 340.038 218.823 338.734 218.804 337.363V337.35C218.801 337.192 218.928 337.063 219.085 337.06C219.189 337.059 219.28 337.113 219.332 337.195C220.063 338.368 220.68 339.631 221.143 340.943C221.614 342.254 221.979 343.61 222.223 344.985C222.472 346.361 222.654 347.756 222.641 349.155C222.639 349.855 222.606 350.555 222.516 351.252C222.429 351.962 222.314 352.621 222.082 353.382C221.768 354.411 220.679 354.992 219.651 354.677C218.836 354.427 218.304 353.691 218.274 352.883L218.268 352.7L218.264 352.701Z" fill="#390176"/>
<path d="M230.453 351.001C230.399 350.494 230.387 349.865 230.389 349.291C230.375 348.701 230.389 348.11 230.402 347.516L230.527 343.918C230.553 342.709 230.573 341.485 230.545 340.249C230.551 339.005 230.475 337.761 230.47 336.46V336.451C230.47 336.292 230.598 336.162 230.756 336.162C230.856 336.162 230.945 336.215 230.997 336.293C232.431 338.492 233.387 340.978 233.999 343.535C234.306 344.816 234.545 346.12 234.611 347.44C234.649 348.098 234.652 348.762 234.606 349.424C234.559 350.102 234.486 350.726 234.301 351.466C234.039 352.511 232.98 353.145 231.937 352.882C231.125 352.678 230.562 351.99 230.475 351.202L230.455 351.001H230.453Z" fill="#390176"/>
<path d="M278.536 324.061C278.179 323.458 277.967 322.955 277.766 322.386C277.566 321.833 277.413 321.268 277.297 320.7C277.052 319.563 276.969 318.4 276.944 317.246C276.911 314.936 277.158 312.626 277.88 310.421C277.93 310.269 278.094 310.186 278.246 310.235C278.335 310.265 278.401 310.332 278.43 310.415L278.432 310.424C278.808 311.512 279.095 312.573 279.43 313.613C279.733 314.656 280.073 315.674 280.392 316.682C280.715 317.688 281.084 318.669 281.376 319.655C281.523 320.148 281.674 320.635 281.794 321.129C281.921 321.604 282.055 322.14 282.106 322.554L282.139 322.829C282.27 323.898 281.51 324.87 280.443 325C279.654 325.097 278.917 324.704 278.534 324.061H278.536Z" fill="#390176"/>
<path d="M291.954 322.437C291.683 322.127 291.512 321.902 291.328 321.631C291.149 321.368 290.988 321.106 290.839 320.832C290.538 320.294 290.286 319.732 290.079 319.161C289.651 318.018 289.4 316.823 289.244 315.627C289.094 314.431 289.028 313.23 289.103 312.036C289.167 310.845 289.356 309.665 289.679 308.522C289.723 308.368 289.883 308.279 290.037 308.323C290.129 308.349 290.197 308.416 290.228 308.498L290.232 308.509C290.646 309.61 290.977 310.674 291.387 311.702C291.756 312.736 292.192 313.728 292.613 314.701C293.038 315.674 293.534 316.6 293.962 317.532C294.178 317.999 294.404 318.454 294.603 318.92C294.714 319.144 294.805 319.384 294.908 319.606C294.996 319.825 295.115 320.083 295.149 320.241L295.264 320.753C295.496 321.787 294.847 322.813 293.814 323.044C293.106 323.203 292.401 322.945 291.953 322.435L291.954 322.437Z" fill="#390176"/>
<path d="M206.131 143.06C207.023 135.758 203.72 129.346 198.754 128.738C193.788 128.13 189.04 133.556 188.149 140.858C187.258 148.159 190.561 154.571 195.526 155.179C200.492 155.787 205.24 150.361 206.131 143.06Z" fill="#390176"/>
<path d="M202.262 140.115C202.522 137.982 201.558 136.109 200.107 135.932C198.657 135.754 197.271 137.339 197.01 139.472C196.75 141.604 197.715 143.477 199.165 143.655C200.615 143.832 202.002 142.247 202.262 140.115Z" fill="white"/>
<path d="M254.528 147.759C259.389 146.575 261.923 139.821 260.187 132.674C258.452 125.527 253.104 120.692 248.243 121.877C243.382 123.061 240.848 129.815 242.584 136.962C244.32 144.11 249.667 148.944 254.528 147.759Z" fill="#390176"/>
<path d="M249.57 136.739C250.99 136.393 251.73 134.42 251.223 132.332C250.716 130.245 249.154 128.833 247.734 129.179C246.315 129.524 245.575 131.497 246.082 133.585C246.589 135.672 248.151 137.084 249.57 136.739Z" fill="white"/>
<path d="M122.01 150.356C122.01 150.356 145.1 117.852 156.959 124.103C168.816 130.354 154.462 187.237 154.462 187.237L122.01 150.357V150.356Z" fill="#98979F"/>
<path d="M77.8557 142.674L34.4941 165.715C34.4941 165.715 35.9356 153.013 38.825 139.299C42.1264 123.635 47.3124 106.644 54.4022 105.757C61.0799 104.925 66.9582 114.233 71.165 123.71C75.3345 133.105 77.8557 142.675 77.8557 142.675V142.674Z" fill="#98979F"/>
<path d="M152.752 340.976C101.551 335.537 57.0982 307.472 29.5566 266.948C30.7927 265.222 32.0598 263.416 33.3256 261.541C36.4902 256.872 39.6857 251.784 42.6435 246.471C45.7577 240.864 48.6096 235.007 50.8622 229.118L127.626 235.994L131.577 253.547L137.611 280.376C137.611 280.376 148.939 291.722 152.933 311.68C154.605 320.013 154.998 329.845 152.752 340.977V340.976Z" fill="#98979F"/>
<g opacity="0.2">
<path d="M152.752 340.976C101.551 335.537 57.0982 307.472 29.5566 266.948C30.7927 265.222 32.0598 263.416 33.3256 261.541C33.6059 262.098 33.912 262.647 34.2685 263.173C38.8926 270.018 45.7887 275.368 53.678 277.881C61.061 280.231 69.3675 280.344 75.7275 284.775C82.1999 289.282 85.4071 297.477 91.9725 301.858C100.367 307.452 111.413 305.278 121.461 304.509C122.79 304.403 124.213 304.353 125.374 305.015C126.492 305.653 127.159 306.84 127.896 307.903C133.275 315.616 145.445 317.385 152.791 311.516C152.841 311.572 152.89 311.622 152.934 311.679C154.607 320.012 154.999 329.844 152.753 340.976H152.752Z" fill="#390176"/>
</g>
<path d="M152.753 343.477C152.666 343.477 152.576 343.472 152.487 343.463C101.834 338.082 56.2758 310.706 27.4917 268.354C26.9014 267.486 26.9156 266.341 27.5278 265.488C32.4825 258.577 36.8341 251.77 40.4623 245.251C43.774 239.288 46.4891 233.558 48.5311 228.222C48.9303 227.178 49.97 226.527 51.0847 226.627L127.848 233.503C128.928 233.6 129.823 234.384 130.061 235.443L139.894 279.15C143.417 282.964 162.443 305.557 155.197 341.472C154.96 342.649 153.928 343.477 152.752 343.477H152.753ZM32.604 266.972C60.1675 306.658 103.024 332.502 150.724 338.231C156.686 303.501 136.059 282.356 135.846 282.142C135.511 281.807 135.28 281.385 135.176 280.924L125.59 238.32L52.5016 231.773C50.4699 236.818 47.8918 242.161 44.8254 247.683C41.3561 253.916 37.2487 260.398 32.604 266.971V266.972Z" fill="#390176"/>
<path d="M131.576 253.545C121.522 263.578 102.368 268.648 81.5609 265.453C64.9918 262.909 50.9866 255.677 42.6426 246.47C45.7567 240.863 48.6087 235.006 50.8613 229.117L127.625 235.993L131.576 253.546V253.545Z" fill="#FF0068"/>
<path d="M94.0133 268.918C89.8297 268.918 85.5324 268.593 81.1848 267.926C64.5988 265.378 49.8767 258.171 40.7965 248.151C40.0771 247.357 39.9427 246.193 40.4633 245.255C43.7763 239.291 46.4914 233.56 48.5334 228.223C48.9326 227.179 49.9723 226.528 51.087 226.628L127.85 233.504C128.93 233.601 129.825 234.385 130.063 235.445L134.013 252.996C134.201 253.835 133.947 254.71 133.34 255.317C124.57 264.069 110.158 268.918 94.0146 268.918H94.0133ZM45.7086 246.075C54.112 254.593 67.1976 260.718 81.9404 262.982C100.603 265.847 118.8 261.823 128.829 252.712L125.59 238.322L52.5013 231.774C50.6672 236.327 48.3901 241.124 45.7073 246.075H45.7086Z" fill="#390176"/>
<path d="M83.9396 281.625C89.7991 281.625 94.5491 276.867 94.5491 270.998C94.5491 265.129 89.7991 260.372 83.9396 260.372C78.0801 260.372 73.3301 265.129 73.3301 270.998C73.3301 276.867 78.0801 281.625 83.9396 281.625Z" fill="#FFB012"/>
<g opacity="0.6">
<path d="M94.5491 270.998C94.5491 272.354 94.2934 273.654 93.8258 274.848C93.3388 269.435 88.7962 265.197 83.2667 265.197C78.7666 265.197 74.9162 268.01 73.3805 271.974C73.343 271.655 73.3301 271.329 73.3301 270.998C73.3301 265.129 78.0794 260.372 83.9396 260.372C89.7998 260.372 94.5491 265.129 94.5491 270.998Z" fill="white"/>
</g>
<g opacity="0.2">
<path d="M94.5491 270.998C94.5491 276.868 89.7998 281.625 83.9396 281.625C78.0794 281.625 73.3301 276.868 73.3301 270.998C73.3301 269.498 73.6427 268.067 74.2032 266.767C75.3954 271.33 79.539 274.693 84.4692 274.693C88.831 274.693 92.5755 272.062 94.2055 268.292C94.4303 269.155 94.5491 270.067 94.5491 270.998Z" fill="#390176"/>
</g>
<path d="M83.9402 284.124C76.7135 284.124 70.834 278.235 70.834 270.997C70.834 263.759 76.7135 257.871 83.9402 257.871C91.167 257.871 97.0465 263.76 97.0465 270.997C97.0465 278.234 91.167 284.124 83.9402 284.124ZM83.9402 262.871C79.466 262.871 75.8275 266.517 75.8275 270.997C75.8275 275.477 79.4673 279.124 83.9402 279.124C88.4132 279.124 92.053 275.478 92.053 270.997C92.053 266.516 88.4132 262.871 83.9402 262.871Z" fill="#390176"/>
<path d="M84.47 316.573C83.6963 322.118 81.3998 327.131 77.0741 330.381C62.0962 341.632 53.7083 313.522 57.9023 299.139L50.4883 292.175C50.4883 292.175 50.6252 292 50.8939 291.7C52.5794 289.824 59.4432 283.131 70.209 284.749C79.0903 286.08 86.3855 302.921 84.47 316.572V316.573Z" fill="#98979F"/>
<g opacity="0.2">
<path d="M84.47 316.573C83.6963 322.118 81.3998 327.131 77.0741 330.381C62.0962 341.632 53.7083 313.522 57.9023 299.139L50.4883 292.175C50.4883 292.175 50.6252 292 50.8939 291.7C54.7636 291.888 59.7493 293.219 64.2055 297.788C64.2055 297.788 60.1924 320.304 70.1212 323.516C75.9503 325.404 81.1608 320.741 84.4687 316.572L84.47 316.573Z" fill="#390176"/>
</g>
<g opacity="0.6">
<path d="M79.5773 328.056C85.0758 313.922 76.9682 292.007 66.7836 290.476C60.4055 289.52 55.4004 291.476 52.024 293.627L50.4883 292.183C50.4883 292.183 57.7279 282.876 70.209 284.75C81.9164 286.507 90.8791 315.224 79.576 328.056H79.5773Z" fill="white"/>
</g>
<path d="M70.3816 335.23C68.2956 335.23 66.282 334.587 64.4181 333.294C56.3312 327.686 52.8812 310.75 55.378 299.87L48.9417 293.831C48.088 293.03 47.9859 291.711 48.7041 290.787C49.0334 290.364 56.9111 280.466 70.5444 282.511C77.0697 283.492 83.0332 291.059 85.7392 301.791C88.2915 311.917 87.7116 325.222 78.4298 332.193C75.7394 334.214 73.0037 335.231 70.3804 335.231L70.3816 335.23ZM53.6885 292.079L59.4492 297.484C60.0705 298.068 60.312 298.951 60.0744 299.772C57.185 309.684 60.8067 325.281 66.9937 329.572C69.5795 331.367 72.434 331.039 75.72 328.57C83.2347 322.924 83.4543 311.213 81.358 302.899C79.1699 294.218 74.4477 287.676 69.8766 286.989C61.7664 285.769 56.1646 289.775 53.6911 292.079H53.6885Z" fill="#390176"/>
<path d="M137.737 338.701L120.5 334.35C120.5 334.35 113.898 346.632 103.288 341.007C99.1936 338.838 96.5483 333.288 95.6558 326.862C93.7829 313.522 99.4248 296.401 115.147 297.876C127.378 299.026 133.102 314.085 135.704 325.58C137.346 332.856 137.739 338.701 137.739 338.701H137.737Z" fill="#98979F"/>
<g opacity="0.2">
<path d="M137.736 338.701L120.499 334.35C120.499 334.35 113.896 346.632 103.287 341.007C99.1921 338.838 96.5468 333.288 95.6543 326.862C95.8351 327.124 101.527 335.332 108.236 335.301C115.057 335.27 122.259 329.85 123.47 323.518C123.47 323.518 127.252 332.981 135.695 325.586L135.702 325.58C137.343 332.856 137.736 338.701 137.736 338.701Z" fill="#390176"/>
</g>
<g opacity="0.6">
<path d="M137.737 338.702L136.939 338.501C135.185 327.3 129.9 305.697 115.145 304.309C102.552 303.127 96.4229 313.878 95.4426 325.067C94.3072 312.035 100.123 296.464 115.145 297.876C135.117 299.752 137.737 338.701 137.737 338.701V338.702Z" fill="white"/>
</g>
<path d="M108.787 344.754C106.748 344.754 104.553 344.242 102.229 343.009C93.5014 338.381 91.17 322.571 94.5373 311.275C97.7831 300.39 105.369 294.686 115.355 295.623C136.992 297.655 139.876 336.879 139.989 338.548C140.038 339.271 139.737 339.974 139.181 340.438C138.626 340.902 137.883 341.072 137.181 340.896L121.563 336.954C119.151 340.54 114.624 344.754 108.785 344.754H108.787ZM113.276 300.052C104.036 300.052 100.298 307.781 98.8694 312.572C95.7553 323.017 98.416 335.863 104.345 339.007C112.818 343.501 118.287 333.691 118.515 333.272C119.009 332.365 120.055 331.903 121.055 332.156L135.155 335.715C134.051 326.735 129.645 301.513 114.934 300.131C114.363 300.077 113.81 300.051 113.276 300.051V300.052Z" fill="#390176"/>
<path d="M117.712 334.131C118.044 333.716 118.414 333.169 118.749 332.663C119.091 332.147 119.424 331.616 119.739 331.078C120.371 330 120.972 328.892 121.483 327.744C122.502 325.452 123.303 323.013 123.258 320.379C123.696 321.615 123.922 322.954 124.015 324.306C124.099 325.66 124.029 327.021 123.897 328.381C123.76 329.74 123.521 331.085 123.235 332.426C123.091 333.098 122.927 333.764 122.746 334.43C122.56 335.109 122.386 335.737 122.124 336.472L122.088 336.573C121.616 337.896 120.163 338.586 118.843 338.113C117.522 337.641 116.833 336.186 117.305 334.863C117.4 334.594 117.545 334.343 117.712 334.131Z" fill="#390176"/>
<path d="M154.463 189.737C153.755 189.737 153.07 189.435 152.59 188.889L120.137 152.009C119.37 151.139 119.304 149.853 119.976 148.907C120.216 148.569 125.95 140.53 133.263 133.128C143.754 122.506 152.118 118.724 158.122 121.891C161.971 123.919 166.625 129.908 162.63 158.363C160.529 173.326 156.919 187.707 156.883 187.85C156.656 188.749 155.951 189.449 155.05 189.668C154.855 189.716 154.659 189.738 154.463 189.738V189.737ZM125.204 150.205L153.145 181.957C154.368 176.57 156.346 167.217 157.69 157.631C161.364 131.437 157.17 127.04 155.797 126.315C149.241 122.86 134.409 137.732 125.204 150.205Z" fill="#390176"/>
<path d="M148.846 170.359C148.157 170.359 147.487 170.073 147.009 169.552L132.655 153.925C131.876 153.077 131.777 151.805 132.415 150.845C132.534 150.668 135.35 146.45 138.843 142.395C144.303 136.057 148.355 133.671 151.596 134.888C155.153 136.224 155.885 141.649 154.125 153.612C153.029 161.059 151.346 168.143 151.274 168.441C151.06 169.34 150.367 170.046 149.475 170.279C149.267 170.333 149.056 170.359 148.847 170.359H148.846ZM137.673 152.003L147.455 162.651C149.754 151.702 150.711 141.886 149.627 139.576C147.661 139.833 142.304 145.405 137.673 152.002V152.003Z" fill="#390176"/>
<path d="M154.463 189.737C153.755 189.737 153.07 189.435 152.59 188.889L120.137 152.009C119.37 151.139 119.304 149.853 119.976 148.907C120.216 148.569 125.95 140.53 133.263 133.128C143.754 122.506 152.118 118.724 158.122 121.891C161.971 123.919 166.625 129.908 162.63 158.363C160.529 173.326 156.919 187.707 156.883 187.85C156.656 188.749 155.951 189.449 155.05 189.668C154.855 189.716 154.659 189.738 154.463 189.738V189.737ZM125.204 150.205L153.145 181.957C154.368 176.57 156.346 167.217 157.69 157.631C161.364 131.437 157.17 127.04 155.797 126.315C149.241 122.86 134.409 137.732 125.204 150.205Z" fill="#390176"/>
<path d="M34.4979 168.213C34.0058 168.213 33.515 168.067 33.0926 167.78C32.3267 167.257 31.9134 166.353 32.018 165.432C32.0348 165.284 33.7242 150.553 37.0308 135.81C43.3185 107.774 49.7832 103.816 54.0985 103.278C60.8306 102.438 67.3236 108.933 73.3982 122.579C77.6322 132.092 80.1651 141.638 80.271 142.04C80.5668 143.163 80.0514 144.342 79.0272 144.886L35.6681 167.923C35.3013 168.119 34.8996 168.214 34.4979 168.214V168.213ZM55.2274 108.207C55.0556 108.207 54.8851 108.217 54.7146 108.239C53.175 108.431 47.701 111.064 41.9093 136.87C39.7898 146.316 38.3444 155.766 37.5914 161.239L74.9223 141.405C70.8033 126.827 62.4645 108.207 55.2274 108.207Z" fill="#390176"/>
<path d="M46.58 152.068C46.0723 152.068 45.5686 151.914 45.1398 151.61C44.3868 151.077 43.9876 150.17 44.1039 149.254C44.1426 148.95 45.0636 141.727 46.6613 134.372C49.2278 122.566 51.8227 117.747 55.6163 117.747H55.6253C59.0869 117.753 62.037 121.417 64.9122 129.276C66.7515 134.306 67.901 139.248 67.9488 139.455C68.2084 140.578 67.6672 141.734 66.6391 142.252L47.7024 151.801C47.3472 151.98 46.9636 152.068 46.58 152.068ZM55.7984 122.842C53.972 124.657 51.4184 134.158 49.7161 145.186L62.6195 138.68C60.6239 130.921 57.5963 123.855 55.7984 122.842Z" fill="#390176"/>
<path d="M34.4979 168.213C34.0058 168.213 33.515 168.067 33.0926 167.78C32.3267 167.257 31.9134 166.353 32.018 165.432C32.0348 165.284 33.7242 150.553 37.0308 135.81C43.3185 107.774 49.7832 103.816 54.0985 103.278C60.8306 102.438 67.3236 108.933 73.3982 122.579C77.6322 132.092 80.1651 141.638 80.271 142.04C80.5668 143.163 80.0514 144.342 79.0272 144.886L35.6681 167.923C35.3013 168.119 34.8996 168.214 34.4979 168.214V168.213ZM55.2274 108.207C55.0556 108.207 54.8851 108.217 54.7146 108.239C53.175 108.431 47.701 111.064 41.9093 136.87C39.7898 146.316 38.3444 155.766 37.5914 161.239L74.9223 141.405C70.8033 126.827 62.4645 108.207 55.2274 108.207Z" fill="#390176"/>
<path d="M134.49 152.231C134.49 152.231 145.724 135.353 150.717 137.229C155.709 139.105 148.844 167.859 148.844 167.859L134.49 152.232V152.231Z" fill="#FA509C"/>
<path d="M65.5148 140.018C65.5148 140.018 60.9502 120.255 55.6183 120.246C50.2864 120.236 46.5781 149.567 46.5781 149.567L65.5148 140.018Z" fill="#FA509C"/>
<path d="M148.844 169.476C148.398 169.476 147.965 169.291 147.655 168.953L133.301 153.326C132.798 152.778 132.733 151.955 133.146 151.334C135.948 147.124 145.538 133.557 151.282 135.715C153.429 136.521 155.341 139.263 153.249 153.483C152.159 160.891 150.431 168.163 150.414 168.235C150.276 168.816 149.828 169.274 149.25 169.424C149.116 169.459 148.979 169.476 148.844 169.476ZM136.543 152.079L147.943 164.49C148.516 161.831 149.343 157.726 149.978 153.526C151.989 140.225 150.143 138.744 150.124 138.731C148.017 137.936 141.462 144.945 136.543 152.079Z" fill="#390176"/>
<path d="M46.5793 151.184C46.2512 151.184 45.9244 151.084 45.648 150.888C45.161 150.542 44.9027 149.958 44.9776 149.364C44.9867 149.29 45.9321 141.876 47.5222 134.559C50.5704 120.53 53.3229 118.629 55.6143 118.629H55.622C61.7586 118.641 65.95 134.724 67.0892 139.654C67.2571 140.382 66.9071 141.128 66.2419 141.463L47.3052 151.012C47.0752 151.127 46.8273 151.185 46.5793 151.185V151.184ZM55.6156 121.863C55.6156 121.863 53.372 122.601 50.5665 135.755C49.6805 139.909 49.0088 144.043 48.6071 146.732L63.6457 139.15C61.5545 130.737 57.8876 121.867 55.6143 121.863H55.6156Z" fill="#390176"/>
<g opacity="0.2">
<path d="M77.8557 142.674L34.4941 165.715C34.4941 165.715 35.9356 153.013 38.825 139.299C46.5387 133.604 58.9513 125.765 71.165 123.71C75.3345 133.105 77.8557 142.675 77.8557 142.675V142.674Z" fill="#390176"/>
</g>
<g opacity="0.2">
<path d="M122.941 148.55L155.633 185.224C155.633 185.224 158.678 172.81 160.718 158.942C155.455 150.921 146.527 139.257 135.783 133.086C128.619 140.45 122.941 148.55 122.941 148.55Z" fill="#390176"/>
</g>
<path d="M158.724 208.916C153.109 246.821 119.71 260.624 81.8648 255C44.0198 249.376 16.061 226.456 21.6758 188.55C27.2905 150.645 62.5213 124.475 100.366 130.099C138.211 135.723 164.339 171.01 158.724 208.916Z" fill="#98979F"/>
<g opacity="0.6">
<path d="M157.533 208.727C157.359 209.902 157.158 211.058 156.927 212.19C160.497 175.629 134.822 142.305 98.1382 136.855C92.6216 136.036 87.1606 135.892 81.8365 136.361V136.367C82.0302 138.136 79.2713 139.893 75.6702 140.287C72.7188 140.612 70.1226 139.925 69.1797 138.693C44.8336 145.569 25.3182 165.591 20.0703 191.751C20.1762 190.632 20.3196 189.501 20.4888 188.356C26.0997 150.457 61.3291 124.285 99.1741 129.91C137.019 135.53 163.149 170.823 157.533 208.728V208.727Z" fill="white"/>
</g>
<g opacity="0.2">
<path d="M160.438 209.105C154.828 247.01 121.427 260.812 83.582 255.193C47.2043 249.787 19.9624 228.402 22.8893 193.085C25.417 222.432 50.7861 240.297 83.582 245.173C121.427 250.793 154.828 236.991 160.438 199.086C160.701 197.336 160.888 195.592 161.018 193.854C161.38 198.843 161.199 203.949 160.438 209.106V209.105Z" fill="#390176"/>
</g>
<path d="M97.7761 258.72C92.5424 258.72 87.1033 258.306 81.4989 257.474C61.3661 254.481 44.8358 246.931 33.698 235.639C21.4584 223.228 16.4468 206.819 19.2071 188.184C25.0156 148.976 61.587 121.812 100.733 127.627C139.878 133.445 167 170.076 161.193 209.283C158.433 227.918 148.881 242.164 133.57 250.48C123.516 255.941 111.341 258.721 97.7748 258.721L97.7761 258.72ZM90.1581 131.843C57.6333 131.843 29.0597 155.747 24.1463 188.916C18.2719 228.579 50.2994 247.78 82.2326 252.525C114.164 257.272 150.381 248.21 156.255 208.548C161.659 172.068 136.423 137.986 100.002 132.573C96.6963 132.081 93.4052 131.843 90.1581 131.843Z" fill="#390176"/>
<path d="M85.1131 194.989L96.4705 195.935C97.7544 196.042 98.3033 197.624 97.3604 198.505L91.0366 204.411C90.3869 205.018 89.3536 204.921 88.8279 204.205L83.7943 197.354C83.0387 196.325 83.8434 194.884 85.1131 194.99V194.989Z" fill="#390176"/>
<path d="M65.9313 200.511C66.6921 202.157 67.3508 203.483 68.0948 204.674C68.8271 205.859 69.5995 206.907 70.4766 207.85C71.3471 208.79 72.3004 209.66 73.415 210.326C74.5375 210.987 75.78 211.4 77.1427 211.479L77.5522 211.481L78.0766 211.47C78.4382 211.48 78.7418 211.405 79.0673 211.372C79.7066 211.275 80.3318 211.103 80.9324 210.878C82.1284 210.416 83.2405 209.777 84.2454 208.987C85.2684 208.208 86.1493 207.262 87.0082 206.211C87.8969 205.16 88.7791 204.022 89.9777 202.542L89.9893 202.527C90.1598 202.317 90.4698 202.284 90.6804 202.455C90.7333 202.499 90.7772 202.553 90.807 202.61C91.7292 204.393 91.6982 206.462 91.0872 208.321C90.4453 210.177 89.2402 211.832 87.7639 213.159C86.2707 214.476 84.4702 215.45 82.5534 215.977C81.5976 216.248 80.6172 216.423 79.6343 216.497C79.146 216.524 78.6384 216.582 78.1812 216.549L77.4811 216.527L77.1169 216.518L76.6674 216.488C74.7726 216.286 72.8144 215.783 71.0346 214.941C69.2456 214.106 67.5949 212.896 66.3549 211.336C65.124 209.777 64.2845 207.907 64.0274 205.973C63.7768 204.045 64.0726 202.055 65.1021 200.441C65.2416 200.222 65.5322 200.157 65.7505 200.297C65.8293 200.348 65.8874 200.417 65.9248 200.496L65.9313 200.511Z" fill="#390176"/>
<path d="M90.8076 202.611C91.5567 204.233 92.2038 205.54 92.9375 206.716C93.6556 207.887 94.4138 208.922 95.2715 209.855C96.1201 210.789 97.0539 211.644 98.135 212.322C99.2148 212.993 100.457 213.436 101.746 213.543L101.94 213.572C101.952 213.565 101.957 213.565 101.97 213.569L102.226 213.573L102.737 213.58C103.083 213.6 103.401 213.524 103.732 213.502C104.385 213.42 105.023 213.255 105.638 213.039C106.863 212.589 108.001 211.953 109.026 211.155C110.072 210.375 110.971 209.419 111.844 208.354C112.745 207.29 113.637 206.138 114.855 204.636L114.867 204.622C115.039 204.411 115.347 204.379 115.558 204.551C115.611 204.595 115.655 204.649 115.685 204.706C116.621 206.517 116.574 208.622 115.933 210.503C115.265 212.384 114.018 214.05 112.501 215.379C110.964 216.692 109.118 217.652 107.162 218.149C106.187 218.408 105.189 218.562 104.19 218.621C103.693 218.633 103.184 218.69 102.701 218.642L101.969 218.606L101.603 218.587C101.411 218.568 101.21 218.541 101.015 218.51L101.209 218.538C99.3001 218.294 97.4143 217.772 95.6641 216.913C93.9153 216.063 92.3162 214.84 91.1189 213.287C89.9318 211.735 89.1284 209.886 88.8921 207.982C88.6647 206.083 88.9644 204.13 89.9796 202.542C90.1191 202.323 90.4097 202.258 90.6293 202.399C90.7081 202.45 90.7662 202.52 90.8024 202.599L90.8089 202.613L90.8076 202.611Z" fill="#390176"/>
<path d="M87.451 242.777C87.1513 242.777 86.8517 242.762 86.5507 242.731C81.7833 242.242 77.8864 237.95 75.8572 230.959C74.479 226.204 74.0631 220.621 74.6534 214.812C74.6935 214.433 74.7322 214.069 74.7774 213.699C74.9376 212.391 76.0833 211.428 77.3981 211.507C82.8269 211.815 87.4406 207.811 87.903 202.379C87.903 202.375 87.903 202.37 87.903 202.366C88.0193 200.99 89.2283 199.97 90.6 200.086C91.973 200.203 92.9934 201.411 92.8771 202.787C92.8771 202.793 92.8771 202.797 92.8771 202.802C92.4225 208.248 96.3142 212.97 101.742 213.556C103.069 213.7 104.05 214.864 103.966 216.201C103.932 216.723 103.887 217.252 103.834 217.789C103.25 223.55 101.734 228.9 99.4477 233.269C96.2574 239.367 91.9252 242.78 87.4484 242.78L87.451 242.777ZM79.5203 216.449C79.1599 221.159 79.5552 225.779 80.6518 229.563C82.0635 234.426 84.4582 237.489 87.0596 237.756C89.6765 238.025 92.6563 235.478 95.029 230.945C96.8916 227.383 98.2155 222.836 98.7838 218.066C94.8146 216.974 91.5855 214.345 89.692 210.898C87.2456 213.983 83.6187 216.039 79.5203 216.45V216.449Z" fill="#390176"/>
<path d="M87.4511 242.777C87.1515 242.777 86.8518 242.762 86.5509 242.731C81.7834 242.242 77.8866 237.95 75.8574 230.959C75.6766 230.338 75.7437 229.671 76.0447 229.098C78.265 224.868 82.6049 222.241 87.3724 222.241C92.9949 222.241 98.0361 226.004 99.6326 231.394C99.8173 232.018 99.7514 232.689 99.4505 233.266C96.2601 239.363 91.9293 242.777 87.4511 242.777ZM80.9723 230.587C82.4099 234.853 84.6457 237.508 87.0598 237.756C89.4881 238.006 92.2289 235.83 94.5074 231.893C93.2764 229.113 90.4697 227.242 87.3737 227.242C84.7955 227.242 82.4215 228.503 80.9736 230.588L80.9723 230.587Z" fill="#390176"/>
<path d="M97.7761 258.72C92.5424 258.72 87.1033 258.306 81.4989 257.474C61.3661 254.481 44.8358 246.931 33.698 235.639C21.4584 223.228 16.4468 206.819 19.2071 188.184C25.0156 148.976 61.587 121.812 100.733 127.627C139.878 133.445 167 170.076 161.193 209.283C158.433 227.918 148.881 242.164 133.57 250.48C123.516 255.941 111.341 258.721 97.7748 258.721L97.7761 258.72ZM90.1581 131.843C57.6333 131.843 29.0597 155.747 24.1463 188.916C18.2719 228.579 50.2994 247.78 82.2326 252.525C114.164 257.272 150.381 248.21 156.255 208.548C161.659 172.068 136.423 137.986 100.002 132.573C96.6963 132.081 93.4052 131.843 90.1581 131.843Z" fill="#390176"/>
<path d="M85.1131 194.989L96.4705 195.935C97.7544 196.042 98.3033 197.624 97.3604 198.505L91.0366 204.411C90.3869 205.018 89.3536 204.921 88.8279 204.205L83.7943 197.354C83.0387 196.325 83.8434 194.884 85.1131 194.99V194.989Z" fill="#390176"/>
<path d="M101.477 216.04C101.446 216.534 101.402 217.034 101.352 217.541C100.783 223.141 99.2865 228.192 97.2392 232.105C94.4558 237.425 90.6558 240.637 86.8041 240.244C82.9718 239.851 79.9145 235.981 78.2534 230.262C77.0174 225.999 76.5627 220.71 77.1362 215.066C77.1736 214.71 77.2111 214.36 77.255 214.004C83.9832 214.392 89.8239 209.341 90.3923 202.578C89.8175 209.359 94.7606 215.317 101.476 216.043L101.477 216.04Z" fill="#390176"/>
<path d="M97.2397 232.106C94.4562 237.425 90.6562 240.638 86.8046 240.244C82.9723 239.851 79.915 235.981 78.2539 230.262C79.977 226.98 83.4153 224.743 87.3716 224.743C92.0331 224.743 95.9778 227.849 97.2384 232.107L97.2397 232.106Z" fill="#FF48A0"/>
<path d="M87.451 242.777C87.1513 242.777 86.8517 242.762 86.5507 242.731C81.7833 242.242 77.8864 237.95 75.8572 230.959C74.479 226.204 74.0631 220.621 74.6534 214.812C74.6935 214.433 74.7322 214.069 74.7774 213.699C74.9376 212.391 76.0833 211.428 77.3981 211.507C82.8269 211.815 87.4406 207.811 87.903 202.379C87.903 202.375 87.903 202.37 87.903 202.366C88.0193 200.99 89.2283 199.97 90.6 200.086C91.973 200.203 92.9934 201.411 92.8771 202.787C92.8771 202.793 92.8771 202.797 92.8771 202.802C92.4225 208.248 96.3142 212.97 101.742 213.556C103.069 213.7 104.05 214.864 103.966 216.201C103.932 216.723 103.887 217.252 103.834 217.789C103.25 223.55 101.734 228.9 99.4477 233.269C96.2574 239.367 91.9252 242.78 87.4484 242.78L87.451 242.777ZM79.5203 216.449C79.1599 221.159 79.5552 225.779 80.6518 229.563C82.0635 234.426 84.4582 237.489 87.0596 237.756C89.6765 238.025 92.6563 235.478 95.029 230.945C96.8916 227.383 98.2155 222.836 98.7838 218.066C94.8146 216.974 91.5855 214.345 89.692 210.898C87.2456 213.983 83.6187 216.039 79.5203 216.45V216.449Z" fill="#390176"/>
<path d="M33.3886 194.737C31.3814 194.318 29.515 193.82 27.6602 193.332C25.8106 192.84 23.9881 192.365 22.1708 191.914C20.3534 191.444 18.5322 191.085 16.6839 190.711C14.8252 190.328 12.9588 190.114 10.9219 189.737C12.7521 188.825 14.7994 188.341 16.8427 188.258C18.8835 188.185 20.9476 188.365 22.9147 188.879C24.8871 189.372 26.7909 190.1 28.5695 191.057C30.3365 192.029 32.0208 193.19 33.3899 194.737H33.3886Z" fill="#390176"/>
<path d="M33.686 209.039C31.6413 209.189 29.7103 209.225 27.7922 209.268C25.878 209.305 23.9974 209.351 22.1258 209.418C20.2491 209.467 18.4007 209.625 16.5201 209.774C14.6278 209.917 12.7743 210.228 10.7129 210.427C12.2215 209.045 14.0569 208.015 15.9983 207.373C17.9396 206.74 19.9752 206.344 22.0057 206.295C24.0374 206.225 26.0679 206.4 28.0402 206.83C30.0061 207.278 31.9435 207.929 33.686 209.039Z" fill="#390176"/>
<path d="M38.7316 221.933C36.9208 222.896 35.168 223.709 33.4295 224.522C31.6935 225.328 29.9898 226.13 28.3042 226.948C26.607 227.75 24.9783 228.641 23.3172 229.536C21.6433 230.432 20.0726 231.464 18.2656 232.478C19.091 230.605 20.3568 228.922 21.8745 227.55C23.3973 226.187 25.0997 225.004 26.939 224.14C28.7692 223.257 30.6989 222.597 32.6777 222.195C34.6565 221.81 36.6921 221.624 38.7329 221.936L38.7316 221.933Z" fill="#390176"/>
<path d="M148.062 205.185C149.861 204.169 151.831 203.623 153.817 203.28C155.81 202.956 157.847 202.89 159.871 203.068C161.897 203.226 163.908 203.728 165.813 204.464C167.717 205.209 169.495 206.336 170.928 207.795C168.879 207.488 167.045 207.079 165.163 206.834C163.293 206.585 161.455 206.328 159.585 206.18C157.719 206.013 155.843 205.867 153.934 205.727C152.021 205.583 150.095 205.444 148.061 205.185H148.062Z" fill="#390176"/>
<path d="M143.124 218.608C145.133 218.128 147.176 218.145 149.181 218.365C151.185 218.603 153.163 219.1 155.06 219.831C156.964 220.541 158.76 221.579 160.388 222.812C162.013 224.053 163.413 225.627 164.39 227.425C162.505 226.563 160.855 225.665 159.112 224.911C157.384 224.156 155.687 223.403 153.929 222.743C152.181 222.068 150.418 221.409 148.62 220.749C146.821 220.083 145.008 219.418 143.123 218.608H143.124Z" fill="#390176"/>
<path d="M134.156 229.148C136.187 229.519 138.051 230.36 139.797 231.369C141.537 232.397 143.145 233.649 144.588 235.084C146.044 236.502 147.269 238.177 148.265 239.962C149.253 241.755 149.901 243.759 150.072 245.799C148.694 244.251 147.544 242.762 146.254 241.369C144.975 239.979 143.726 238.605 142.383 237.292C141.055 235.969 139.706 234.654 138.327 233.326C136.949 231.99 135.556 230.649 134.158 229.147L134.156 229.148Z" fill="#390176"/>
<path d="M102.409 342.014C102.289 341.816 102.244 341.739 102.178 341.614C102.12 341.498 102.067 341.391 102.017 341.278C101.927 341.058 101.84 340.838 101.778 340.619C101.643 340.179 101.566 339.742 101.512 339.305C101.406 338.43 101.475 337.565 101.584 336.722C101.687 335.879 101.893 335.059 102.134 334.261C102.396 333.465 102.71 332.691 103.126 331.954C103.193 331.835 103.343 331.793 103.462 331.861C103.523 331.896 103.564 331.953 103.579 332.016V332.024C103.683 332.433 103.763 332.834 103.83 333.228C103.919 333.624 103.976 334.012 104.052 334.398C104.199 335.166 104.332 335.916 104.494 336.642L104.977 338.748C105.057 339.083 105.123 339.419 105.189 339.738L105.274 340.212C105.29 340.283 105.296 340.364 105.308 340.43C105.312 340.488 105.337 340.595 105.301 340.574C105.698 341.373 105.372 342.344 104.574 342.742C103.776 343.139 102.807 342.813 102.409 342.014Z" fill="#390176"/>
<path d="M111.009 342.177C110.601 341.261 110.469 340.456 110.397 339.58C110.329 338.721 110.395 337.858 110.502 337.01C110.73 335.314 111.172 333.649 111.977 332.121C112.04 332.001 112.189 331.955 112.309 332.019C112.373 332.052 112.416 332.11 112.433 332.176L112.435 332.184C112.642 333.016 112.776 333.817 112.945 334.605C113.09 335.391 113.262 336.161 113.413 336.919C113.569 337.677 113.759 338.42 113.882 339.156C114.007 339.875 114.13 340.662 114.12 341.305L114.116 341.54C114.103 342.438 113.365 343.155 112.469 343.142C111.817 343.133 111.26 342.737 111.011 342.178L111.009 342.177Z" fill="#390176"/>
<path d="M61.6155 326.76C61.5096 326.815 61.5884 326.721 61.5948 326.689L61.6865 326.518C61.7589 326.401 61.826 326.263 61.91 326.135C62.0611 325.855 62.2329 325.576 62.4021 325.271C62.7315 324.664 63.1216 324.033 63.46 323.346C63.8126 322.668 64.1471 321.952 64.4946 321.221C64.6638 320.854 64.8343 320.483 65.0203 320.107C65.1895 319.73 65.3768 319.351 65.5834 318.969L65.5873 318.963C65.6519 318.843 65.8017 318.799 65.9205 318.864C65.9838 318.899 66.0264 318.959 66.0419 319.023C66.2434 319.872 66.339 320.727 66.3829 321.591C66.4036 322.453 66.3765 323.326 66.2447 324.201C66.122 325.074 65.9257 325.965 65.546 326.82C65.3638 327.25 65.1301 327.674 64.842 328.081C64.6961 328.288 64.532 328.484 64.3473 328.682C64.2582 328.78 64.1445 328.877 64.0425 328.974C63.9069 329.088 63.8462 329.14 63.5827 329.326C62.8749 329.87 61.8622 329.738 61.3184 329.029C60.7759 328.32 60.9077 327.306 61.6155 326.761V326.76Z" fill="#390176"/>
<path d="M68.7487 331.524C68.6467 331.553 68.7487 331.47 68.7733 331.43L68.9179 331.26L69.2499 330.872C69.4733 330.593 69.7123 330.302 69.9473 329.987C70.4085 329.356 70.9122 328.683 71.3539 327.936C71.8138 327.201 72.2336 326.408 72.665 325.597L73.3017 324.353C73.5032 323.929 73.7215 323.503 73.9618 323.075L73.9669 323.066C74.0328 322.95 74.1788 322.908 74.295 322.974C74.3635 323.013 74.4061 323.082 74.4164 323.154C74.4784 323.642 74.5185 324.132 74.5417 324.624C74.5585 325.115 74.534 325.604 74.521 326.1C74.4423 327.082 74.3118 328.077 74.0393 329.059C73.7822 330.041 73.4257 331.034 72.8484 331.953C72.5668 332.414 72.2297 332.86 71.8254 333.27C71.6265 333.478 71.4004 333.671 71.1576 333.858C71.0323 333.953 70.898 334.038 70.7585 334.127C70.5932 334.224 70.5066 334.276 70.1992 334.416C69.4023 334.817 68.4323 334.496 68.0319 333.698C67.6314 332.9 67.9518 331.928 68.7487 331.527V331.524Z" fill="#390176"/>
<path d="M75.6866 183.269C77.6277 176.642 75.5477 170.196 71.0409 168.872C66.5342 167.548 61.3072 171.846 59.3661 178.473C57.4251 185.1 59.505 191.546 64.0118 192.87C68.5186 194.195 73.7456 189.896 75.6866 183.269Z" fill="#390176"/>
<path d="M72.5572 179.981C73.1245 178.046 72.5173 176.163 71.201 175.776C69.8848 175.389 68.358 176.645 67.7907 178.58C67.2235 180.515 67.8307 182.398 69.1469 182.785C70.4632 183.172 71.99 181.917 72.5572 179.981Z" fill="white"/>
<path d="M126.317 182.331C124.718 182.549 123.082 182.836 121.549 183.236C120.006 183.633 118.524 184.14 117.124 184.758C116.414 185.05 115.754 185.425 115.081 185.766L114.121 186.36C113.794 186.546 113.489 186.764 113.192 186.99C111.946 187.826 110.894 188.901 109.855 189.991L107.628 186.562C108.121 186.442 108.451 186.391 108.843 186.341C109.222 186.288 109.594 186.26 109.966 186.232C110.71 186.183 111.45 186.197 112.186 186.241C113.657 186.334 115.113 186.621 116.499 187.097C117.874 187.594 119.213 188.2 120.38 189.054C121.585 189.84 122.598 190.87 123.493 191.935C123.755 192.246 123.715 192.711 123.404 192.973C123.173 193.169 122.856 193.196 122.602 193.069L122.523 193.029C121.937 192.737 121.406 192.394 120.836 192.126C120.259 191.869 119.714 191.584 119.129 191.385C117.984 190.944 116.819 190.62 115.639 190.448C114.467 190.242 113.279 190.178 112.105 190.223C111.517 190.242 110.935 190.302 110.36 190.373C110.074 190.417 109.789 190.456 109.514 190.515C109.373 190.54 109.241 190.572 109.109 190.605L108.921 190.65L108.784 190.687L108.73 190.702C107.594 191.007 106.425 190.333 106.121 189.195C105.933 188.495 106.124 187.773 106.557 187.257C107.774 185.828 109.094 184.44 110.685 183.404C111.437 182.823 112.298 182.423 113.117 181.964C113.983 181.598 114.833 181.198 115.733 180.956C117.509 180.406 119.343 180.114 121.159 180.095C122.985 180.095 124.759 180.285 126.526 180.879C126.913 181.009 127.123 181.43 126.992 181.818C126.899 182.095 126.66 182.28 126.39 182.317L126.314 182.328L126.317 182.331Z" fill="#390176"/>
</svg>
