<svg xmlns="http://www.w3.org/2000/svg" width="142" height="62" viewBox="0 0 142 62" fill="none">
  <path d="M70.9698 61.6608C73.3867 61.6608 75.8191 61.6069 78.2764 61.4976C88.1117 61.0593 97.4034 59.7768 105.928 57.6838L127.441 59.3771C131.423 59.5403 135.406 60.6822 136.733 60.5189C138.079 59.8959 137.941 59.0552 137.385 58.2352L128.768 46.8166C136.019 41.2442 143.178 34.0874 141.662 27.6816C137.664 10.7716 102.725 -1.57619 63.7689 0.163502C44.8997 1.00503 27.9131 4.98473 15.9405 11.3717C3.96788 17.7586 -1.55869 25.7868 0.379791 33.9782C4.12628 49.8215 35.0457 61.6568 70.9698 61.6595V61.6608ZM105.583 53.2711C104.873 53.26 100.891 54.9728 98.8995 55.5438C96.9083 56.1147 87.217 57.836 78.2764 58.2352C45.4216 59.6984 6.63785 46.8166 5.31035 30.9937C3.6763 24.0848 11.8048 18.681 21.9042 13.2947C32.0035 7.9071 47.854 3.72731 63.7689 3.01795C79.6899 2.30858 97.7758 4.34299 110.183 8.72727C125.45 12.7238 135.751 21.2677 137.385 28.1765C138.736 33.8838 132.333 39.4845 125.449 44.3732C124.632 44.9544 122.353 46.7334 122.794 47.3875L132.087 56.6856C132.087 56.6856 122.131 56.1147 118.812 55.5438C118.812 55.5438 108.856 54.4019 107.528 53.831C106.201 53.26 106.293 53.2821 105.583 53.2711Z" fill="#390176"/>
  <g opacity="0.3">
    <path d="M124 46C117.623 51.511 82.026 54.8024 57.5784 52.5818C30.4648 50.1194 9.74137 41.6555 2.5542 32.511C2.38388 33.7236 3.20554 35.885 3.55855 37.1303C7.24039 50.212 39.1852 60.8535 75.0313 59.511C85.0023 59.1369 94.307 56.8343 102.336 55.0521L132.531 57.5236L126 47C126 47 130.377 40.489 124 46Z" fill="#390565"/>
  </g>
</svg>