<svg xmlns="http://www.w3.org/2000/svg" width="142" height="62" viewBox="0 0 142 62" fill="none">
  <path d="M71.0302 61.8682C68.6133 61.8682 66.1809 61.8143 63.7236 61.705C53.8883 61.2667 44.5966 59.9842 36.0722 57.8912L14.5591 59.5845C10.5766 59.7477 6.59403 60.8896 5.26656 60.7263C3.92142 60.1033 4.05922 59.2626 4.61529 58.4426L13.2316 47.0239C5.98092 41.4516 -1.17836 34.2948 0.337634 27.889C4.33576 10.979 39.2751 -1.36879 78.2311 0.370899C97.1003 1.21242 114.087 5.19213 126.059 11.5791C138.032 17.966 143.559 25.9942 141.62 34.1856C137.874 50.0289 106.954 61.8642 71.0302 61.8669V61.8682ZM36.4168 53.4785C37.1267 53.4674 41.1092 55.1802 43.1005 55.7512C45.0917 56.3221 54.783 58.0434 63.7236 58.4426C96.5784 59.9058 135.362 47.024 136.69 31.2011C138.324 24.2922 130.195 18.8884 120.096 13.5021C109.996 8.11449 94.146 3.9347 78.2311 3.22534C62.3101 2.51598 44.2242 4.55039 31.8167 8.93467C16.5503 12.9312 6.24933 21.4751 4.61529 28.3839C3.26394 34.0912 9.66659 39.6919 16.5507 44.5806C17.3677 45.1618 19.6468 46.9408 19.2057 47.5949L9.9128 56.893C9.9128 56.893 19.8691 56.3221 23.1879 55.7512C23.1879 55.7512 33.1442 54.6093 34.4717 54.0384C35.7992 53.4674 35.707 53.4895 36.4168 53.4785Z" fill="#390176"/>
  <g opacity="0.3">
    <path d="M14.6974 45.3738C32.7634 51.9144 57.6539 54.7794 82.369 52.1463C109.78 49.2263 130.73 39.1901 137.996 28.3466C138.168 29.7845 137.337 32.3474 136.98 33.8241C133.258 49.3362 100.867 60.6192 64.6286 59.0273C54.5485 58.5837 45.2384 57.1887 37.121 55.0755L6.5957 58.0062L15.0668 45.6458C14.9385 45.556 14.8226 45.4649 14.6974 45.3751V45.3738Z" fill="#390565"/>
  </g>
</svg>