<svg width="24" height="24" viewBox="0 0 24 24" fill="none" xmlns="http://www.w3.org/2000/svg">
<g clip-path="url(#clip0_572_3840)">
<path d="M8 22C8.55228 22 9 21.5523 9 21C9 20.4477 8.55228 20 8 20C7.44772 20 7 20.4477 7 21C7 21.5523 7.44772 22 8 22Z" stroke="white" stroke-width="2" stroke-linecap="round" stroke-linejoin="round"/>
<path d="M18 22C18.5523 22 19 21.5523 19 21C19 20.4477 18.5523 20 18 20C17.4477 20 17 20.4477 17 21C17 21.5523 17.4477 22 18 22Z" stroke="white" stroke-width="2" stroke-linecap="round" stroke-linejoin="round"/>
<path d="M1 3H4.63636L7.07273 15.497C7.15586 15.9267 7.38355 16.3127 7.71595 16.5874C8.04835 16.8621 8.46427 17.0081 8.89091 16.9997H17.7273C18.1539 17.0081 18.5698 16.8621 18.9022 16.5874C19.2346 16.3127 19.4623 15.9267 19.5455 15.497L21 7.66655" stroke="white" stroke-width="2" stroke-linecap="round" stroke-linejoin="round"/>
<circle cx="13" cy="6" r="5" fill="#FFA31A"/>
<path d="M10.54 5.634C10.54 4.596 10.714 3.786 11.062 3.204C11.416 2.616 12.022 2.322 12.88 2.322C13.738 2.322 14.341 2.616 14.689 3.204C15.043 3.786 15.22 4.596 15.22 5.634C15.22 6.684 15.043 7.506 14.689 8.1C14.341 8.688 13.738 8.982 12.88 8.982C12.022 8.982 11.416 8.688 11.062 8.1C10.714 7.506 10.54 6.684 10.54 5.634ZM14.212 5.634C14.212 5.148 14.179 4.737 14.113 4.401C14.053 4.065 13.927 3.792 13.735 3.582C13.543 3.366 13.258 3.258 12.88 3.258C12.502 3.258 12.217 3.366 12.025 3.582C11.833 3.792 11.704 4.065 11.638 4.401C11.578 4.737 11.548 5.148 11.548 5.634C11.548 6.138 11.578 6.561 11.638 6.903C11.698 7.245 11.824 7.521 12.016 7.731C12.214 7.941 12.502 8.046 12.88 8.046C13.258 8.046 13.543 7.941 13.735 7.731C13.933 7.521 14.062 7.245 14.122 6.903C14.182 6.561 14.212 6.138 14.212 5.634Z" fill="white"/>
</g>
<defs>
<clipPath id="clip0_572_3840">
<rect width="24" height="24" fill="white"/>
</clipPath>
</defs>
</svg>
